<svg xmlns="http://www.w3.org/2000/svg" viewBox="0 0 487.5 103.76"><defs><style>.\37 b77844e-7ccd-49d8-a7c3-c7dc80a2a175,.e08d7d8e-2d25-4103-b9e6-5c973c201151{fill:#fff;}.e08d7d8e-2d25-4103-b9e6-5c973c201151{stroke:#000;}.\35 2c30c7b-ce41-47b0-83de-ff87cfdc35d2,.e08d7d8e-2d25-4103-b9e6-5c973c201151{stroke-miterlimit:10;}.\35 2c30c7b-ce41-47b0-83de-ff87cfdc35d2{fill:none;stroke:#fff;}</style></defs><title>Asset 34</title><g id="d3bd5287-f5bb-458e-9244-a24dad524e30" data-name="Layer 2"><g id="3b471bcd-f0fe-40a9-92de-38201f354b19" data-name="Layer 1"><path class="e08d7d8e-2d25-4103-b9e6-5c973c201151" d="M449.53,75.43H38A37.47,37.47,0,0,1,38,.5H449.53a37.47,37.47,0,1,1,0,74.93Z"/><line class="52c30c7b-ce41-47b0-83de-ff87cfdc35d2" x1="342" y1="74.43" x2="326" y2="102.43"/><path class="52c30c7b-ce41-47b0-83de-ff87cfdc35d2" d="M326,102.43c0-14.37-5.81-28-13-28"/><line class="52c30c7b-ce41-47b0-83de-ff87cfdc35d2" x1="313" y1="74.43" x2="342" y2="74.43"/><path class="7b77844e-7ccd-49d8-a7c3-c7dc80a2a175" d="M326.72,81.37l-.26,3.69c-.11,1.55,2.06,1.95,2.8.76q2.94-4.76,6.12-9.35l-2.74-1.16a73.12,73.12,0,0,1-3.95,8.75c-.67,1.42,1.19,3.22,2.36,1.82l6.25-7.54-2.36-1.82a69.92,69.92,0,0,1-4.49,7.11c-1,1.37,1.29,3.15,2.36,1.82l3.42-4.25-2.36-1.82c-1.09,1.77-2.25,3.46-3.51,5.11-1,1.34,1.3,3.16,2.36,1.82l4.67-5.93c1.18-1.5-.91-3.63-2.12-2.12a10.82,10.82,0,0,1-1.6,1.78c-1.38,1.37.7,3.41,2.12,2.12L339.23,79l-2.12-2.12-1.67,2c-1,1.25.26,3.26,1.82,2.36l.58-.34-2.05-2.05L326,96.25c-.94,1.69,1.65,3.2,2.59,1.51l9.74-17.39a1.51,1.51,0,0,0-2.05-2.05l-.58.34L337.56,81l1.67-2a1.5,1.5,0,0,0-2.12-2.12L333.65,80l2.12,2.12a10.82,10.82,0,0,0,1.6-1.78l-2.12-2.12-4.67,5.93L332.93,86c1.26-1.65,2.42-3.34,3.51-5.11.87-1.41-1.27-3.17-2.36-1.82l-3.42,4.25L333,85.14A69.92,69.92,0,0,0,337.52,78c.79-1.43-1.23-3.18-2.36-1.82l-6.25,7.54,2.36,1.82a78.63,78.63,0,0,0,4.25-9.47c.54-1.7-1.82-2.49-2.74-1.16q-3.18,4.6-6.12,9.35l2.8.76.26-3.69c.14-1.93-2.86-1.92-3,0Z"/><path class="7b77844e-7ccd-49d8-a7c3-c7dc80a2a175" d="M329.49,84.87a15.63,15.63,0,0,1-1.39,3L330.84,89a17.63,17.63,0,0,1,1.75-4.66L330,82.82q-2,3.79-3.84,7.69c-.67,1.45,1.11,3.15,2.36,1.82l1.06-1.14-2.51-1.46-1.3,5.33h2.89a20,20,0,0,1,1.63-12.74l-2.8-.76A12.24,12.24,0,0,1,327,84.8a1.5,1.5,0,0,0,2.89.8c.76-2.59,1.59-5.77,3.4-7.83L331,75.95l-1.37,1.21,1.69.69q-.89.38-.06.2a2.68,2.68,0,0,1,1.72-.43,28.86,28.86,0,0,1,5.11.38c1.92.16,1.91-2.84,0-3s-13.39-1.16-9.36,4.37a1.57,1.57,0,0,0,1.69.69,5.49,5.49,0,0,0,3.16-2.59c1-1.4-1.23-3.1-2.36-1.82C329,78.12,327.94,81.7,327,84.8l2.89.8a20.7,20.7,0,0,0,.58-4c.05-1.44-2.15-2.11-2.8-.76a23.45,23.45,0,0,0-1.93,15.06,1.51,1.51,0,0,0,2.89,0l1.3-5.33a1.51,1.51,0,0,0-2.51-1.46l-1.06,1.14L328.75,92q1.8-3.91,3.84-7.69c.92-1.7-1.66-3.21-2.59-1.51a20.16,20.16,0,0,0-2,5.38c-.37,1.61,1.89,2.7,2.74,1.16a28.51,28.51,0,0,0,1.69-3.69c.69-1.81-2.21-2.59-2.89-.8Z"/><path class="7b77844e-7ccd-49d8-a7c3-c7dc80a2a175" d="M329.71,77.59c-.94.25-1.48,1.27-2.28,1.46l1.46.39a3.59,3.59,0,0,1-.61-1.19,1.51,1.51,0,0,0-2.59,0l-.37.87,1.3.74-.09-.77-1.9,1.45-.11.35.74-1.3.91.16-1.9,1.45.15,0-1-1.85,0,.12,1.85-1c-2.09-.55-3.79.5-3.31,2.8.36,1.7,1.45,3.31,2,5a35.48,35.48,0,0,0,1.56,5,1.51,1.51,0,0,0,2.74-.36q.77-4.6,1.47-9.21a1.51,1.51,0,0,0-2.51-1.46c-.9.88-1.77,1.13-2,2.49-.14,1,.64,2.27,1.85,1.85,2.51-.87,3-4.82,3.25-7.09.1-.85-.77-1.44-1.5-1.5-3-.22-7.26-.9-7.83,2.76l2.2-.9a9.5,9.5,0,0,0,1.29-.07c.92-.09,1.87,0,2.8,0a41.32,41.32,0,0,0,4.32-.37c1.89-.23,1.92-3.23,0-3s-3.94.29-6,.34c-1.56,0-3.53.06-4.88,1-2.31,1.58-.87,3.48.92,4.68a1.51,1.51,0,0,0,2.2-.9c.2-1.27,3.81-.65,4.94-.56l-1.5-1.5a13,13,0,0,1-.59,2.69c-.19.56-1.08,1.72-.46,1.51l1.85,1.85c0-.23,1-1,1.19-1.17l-2.51-1.46q-.7,4.61-1.47,9.21l2.74-.36c-.81-1.59-1-3.52-1.6-5.19-.39-1-1.87-3.13-1.6-4.14l-1,1,.6,0a1.51,1.51,0,0,0,1.85-1l0-.12a1.54,1.54,0,0,0-1-1.85l-.15,0a1.52,1.52,0,0,0-1.9,1.45c-.21,1.87,1.91,3.79,3.61,2.43s.54-4.12-1.35-4.54a1.52,1.52,0,0,0-1.9,1.45c-.06,3.79,3.28,3.64,4.76.67h-2.59c.42,1,.74,2,1.94,2.21,1.62.28,1.65-1.16,2.88-1.48a1.5,1.5,0,0,0-.8-2.89Z"/><path class="7b77844e-7ccd-49d8-a7c3-c7dc80a2a175" d="M321.89,80.93a.5.5,0,0,0,0-1,.5.5,0,0,0,0,1Z"/><path class="7b77844e-7ccd-49d8-a7c3-c7dc80a2a175" d="M321.89,81.4a.5.5,0,0,0,0-1,.5.5,0,0,0,0,1Z"/><path class="7b77844e-7ccd-49d8-a7c3-c7dc80a2a175" d="M321.47,80.72a.5.5,0,0,0,0-1,.5.5,0,0,0,0,1Z"/><path class="7b77844e-7ccd-49d8-a7c3-c7dc80a2a175" d="M319.49,75.83a2,2,0,0,0,1.55.1,13,13,0,0,0,1.75-.11c.51-.17.46-1-.13-1a22.17,22.17,0,0,1-5.7-.33.5.5,0,0,0-.39.91c.9.58,2.12,1.12,2.67,2.08a.5.5,0,0,0,.86,0,8.77,8.77,0,0,1,.57-1.06.5.5,0,0,0-.3-.73c-.26-.06-.7-.12-.95-.2l.37.48V75.9l-.25.43.07,0a.51.51,0,0,0-.12-.91l-.5-.09c-.63-.12-.9.84-.27,1l.5.09-.12-.91-.07,0a.49.49,0,0,0-.25.43V76a.52.52,0,0,0,.37.48c.31.1.62.12.95.2l-.3-.73a8.77,8.77,0,0,0-.57,1.06h.86c-.65-1.14-2-1.75-3-2.44l-.39.91a22.92,22.92,0,0,0,6,.37l-.13-1c-.31.11-.78-.08-1.11,0s-.94.39-1.41.15-1.08.57-.5.86Z"/><path class="7b77844e-7ccd-49d8-a7c3-c7dc80a2a175" d="M339.18,76.78l-.13.15.75.43c0-.42.73-.76,1-1.07a3,3,0,0,0,.5-1,.51.51,0,0,0-.35-.62,6,6,0,0,0-1.66-.1h-1.86c-.47,0-.71.71-.25.93.79.38,2.05,1.1,2.89.52.53-.36,0-1.23-.5-.86s-1.49-.33-1.88-.52l-.25.93H339a6.18,6.18,0,0,1,1.64.06l-.35-.62c-.3,1-1.42,1.28-1.52,2.35a.5.5,0,0,0,.75.43,1.16,1.16,0,0,0,.62-1,.5.5,0,0,0-1,0Z"/><path class="7b77844e-7ccd-49d8-a7c3-c7dc80a2a175" d="M326.22,91c0-.05-.25-.43-.19-.22l-.05.39,0-.06c.31-.56-.55-1.07-.86-.5a.6.6,0,0,0-.06.53c.05.15.23.3.27.37.27.58,1.13.08.86-.5Z"/><path class="7b77844e-7ccd-49d8-a7c3-c7dc80a2a175" d="M326.71,97a1.3,1.3,0,0,1-.21.82c-.1.22-.12.47-.22.67l.91.12a9.75,9.75,0,0,1-.21-1l-.62.62a1.81,1.81,0,0,1,.81.44l-.15-.35c0,.28-.39.64-.51.9s-.1.63-.27.85l.91.12a2,2,0,0,1-.11-1c.1-.63-.87-.9-1-.27a3.1,3.1,0,0,0,.11,1.51.51.51,0,0,0,.91.12c.22-.29.17-.62.31-.94s.54-.64.61-1.05c.13-.77-.82-1.13-1.4-1.31a.51.51,0,0,0-.62.62,9.75,9.75,0,0,0,.21,1,.51.51,0,0,0,.91.12c.17-.33.25-.67.41-1a1.75,1.75,0,0,0,.16-1c-.08-.63-1.08-.64-1,0Z"/><path class="7b77844e-7ccd-49d8-a7c3-c7dc80a2a175" d="M325.56,102.16l0,.15a.5.5,0,0,0,1,.27l0-.15a.5.5,0,0,0-1-.27Z"/><path d="M341.89,75.6Q334.12,89.36,326,102.92a.5.5,0,0,0,.86.5q8.1-13.56,15.87-27.32a.5.5,0,0,0-.86-.5Z"/><path d="M315.14,76.2c8.5,6.19,8.88,17.49,10.06,27,.08.63,1.08.64,1,0-1.24-9.92-1.71-21.4-10.56-27.85-.52-.38-1,.49-.5.86Z"/><path d="M326.08,102.67l-.33.17c-.58.29-.07,1.15.5.86l.33-.17c.58-.29.07-1.15-.5-.86Z"/><path d="M315.74,75.32a6.32,6.32,0,0,0-2.71-.44.5.5,0,0,0,0,1,5.22,5.22,0,0,1,2.2.3c.58.26,1.09-.6.5-.86Z"/></g></g></svg>