<svg xmlns="http://www.w3.org/2000/svg" xmlns:xlink="http://www.w3.org/1999/xlink" viewBox="0 0 98 136"><defs><style>.b402b4f3-f919-47d9-99d5-9d14598ebf07,.f01fb87f-8dba-42ec-944f-296a8a881f80{fill:none;}.\35 4114b09-fe77-4567-8234-9f50bfdb1b93{clip-path:url(#42d0761c-589e-4c02-8aa6-7295db1496e9);}.c47a35ab-7897-46a7-b945-34aed07b5cf2{fill-opacity:0.5;}.d31a4366-4047-4391-b231-e323ee258fe3{fill:#fff;}.a479c699-5dba-4fe4-94a4-1f6842dfc087{fill:#c7891f;}.d05a99ee-896a-4623-bf7c-7d152d49b965{fill:url(#9760fec6-657f-4dd4-ab49-7b0ec27ec3f2);}.a8be6c5f-d97c-4ffa-a271-2178fedc9630{fill:#002bc0;}.\36 940c5bf-f579-4fb6-a0c8-b3b868361e70{fill:#000086;}.f01fb87f-8dba-42ec-944f-296a8a881f80{stroke-miterlimit:10;stroke-width:2px;stroke:url(#232598ab-d026-4048-adf4-713e4c3f4bcc);}</style><clipPath id="42d0761c-589e-4c02-8aa6-7295db1496e9"><path id="7b8141b3-b407-40b2-a20c-47e0e0cef4e4" data-name="rect6472-823" class="b402b4f3-f919-47d9-99d5-9d14598ebf07" d="M9.31,2h78a7.56,7.56,0,0,1,7.81,7.28V125.84a7.56,7.56,0,0,1-7.81,7.28h-78a7.56,7.56,0,0,1-7.81-7.28V9.28A7.56,7.56,0,0,1,9.31,2Z"/></clipPath><linearGradient id="9760fec6-657f-4dd4-ab49-7b0ec27ec3f2" x1="3.12" y1="-4394.58" x2="79.25" y2="-4441.26" gradientTransform="matrix(1, 0, 0, -1, 0, -4355)" gradientUnits="userSpaceOnUse"><stop offset="0" stop-color="#ebf0d0"/><stop offset="1" stop-color="#ffffeb"/></linearGradient><linearGradient id="232598ab-d026-4048-adf4-713e4c3f4bcc" x1="-499.04" y1="-1572.84" x2="-365.04" y2="-1572.84" gradientTransform="translate(480.04 1640.34)" gradientUnits="userSpaceOnUse"><stop offset="0" stop-color="#0bcdd6"/><stop offset="0.14" stop-color="#fff"/><stop offset="0.29" stop-color="#34d5dd"/><stop offset="0.44" stop-color="#fff"/><stop offset="0.58" stop-color="#0bcdd6"/><stop offset="0.72" stop-color="#fff"/><stop offset="0.87" stop-color="#0bcdd6"/><stop offset="1" stop-color="#fff"/></linearGradient></defs><title>Asset 18</title><g id="a7931400-6a04-4c67-8612-688f0c95449e" data-name="Layer 2"><g id="4a53f799-2127-40bb-b6f6-2fce9081829c" data-name="Layer 1"><g class="54114b09-fe77-4567-8234-9f50bfdb1b93"><g id="993aceb9-d5be-4a7e-8497-413f8eb4fad5" data-name="g5630"><path id="e43f3712-159e-4014-aef2-32722a3a13bc" data-name="rect2070" class="c47a35ab-7897-46a7-b945-34aed07b5cf2" d="M14.1,2.88H86.72A11.38,11.38,0,0,1,98,14.39v110.1A11.38,11.38,0,0,1,86.72,136H14.1A11.38,11.38,0,0,1,2.82,124.49V14.39A11.37,11.37,0,0,1,14.1,2.88Z"/><path id="2b6230a3-6392-429b-8e4c-31ff77393536" data-name="rect1300" class="d31a4366-4047-4391-b231-e323ee258fe3" d="M11.28,0H83.9A11.38,11.38,0,0,1,95.18,11.51v110.1A11.38,11.38,0,0,1,83.9,133.12H11.28A11.38,11.38,0,0,1,0,121.61V11.51A11.37,11.37,0,0,1,11.28,0Z"/><path id="89a97a1c-4ff4-46f9-97e6-899842ed6b3d" data-name="path5624" class="a479c699-5dba-4fe4-94a4-1f6842dfc087" d="M12.69,1.44H85.31A11.38,11.38,0,0,1,96.59,13V123a11.38,11.38,0,0,1-11.28,11.51H12.69A11.38,11.38,0,0,1,1.41,123V13A11.37,11.37,0,0,1,12.69,1.44Z"/><path id="325ee2e8-7de8-4de0-83c6-4a12079cd0b6" data-name="rect1306" class="d05a99ee-896a-4623-bf7c-7d152d49b965" d="M12,.72H84.6A11.38,11.38,0,0,1,95.88,12.23v110.1A11.38,11.38,0,0,1,84.6,133.84H12A11.38,11.38,0,0,1,.71,122.33V12.23A11.37,11.37,0,0,1,12,.72Z"/></g><path id="b869e355-b456-4295-aae9-7d0782602da8" data-name="path1385" class="a8be6c5f-d97c-4ffa-a271-2178fedc9630" d="M14.92,6.48H81.49A10.43,10.43,0,0,1,91.83,17V118A10.42,10.42,0,0,1,81.49,128.5H14.92A10.42,10.42,0,0,1,4.58,118V17A10.43,10.43,0,0,1,14.92,6.47Z"/><path id="6ee7efe6-0903-4cea-be62-53f3815ef3a9" data-name="path2154" class="6940c5bf-f579-4fb6-a0c8-b3b868361e70" d="M14.92,6A10.87,10.87,0,0,0,4.14,17V117.94a10.89,10.89,0,0,0,10.77,11H81.5a10.89,10.89,0,0,0,10.78-11V17A10.87,10.87,0,0,0,81.5,6H14.92Zm0,.9H81.5A10,10,0,0,1,91.39,17V117.94a10,10,0,0,1-9.89,10.12H14.92A10,10,0,0,1,5,117.94V17a10,10,0,0,1,9.89-10.1Z"/><path id="69930461-5e98-4610-9346-9266368982f0" data-name="path4078" class="d31a4366-4047-4391-b231-e323ee258fe3" d="M26.73,13.67c-2.38,0-4.47,1.5-5.9,3.71a15.64,15.64,0,0,0-2.29,8.46c0,3,1.54,6.43,3,9.74a33.11,33.11,0,0,1,2.38,6.93,4.26,4.26,0,0,1-.46-.34,42.53,42.53,0,0,1-2.93-3.24,43.77,43.77,0,0,0-3.33-3.6c-1.12-1-2.2-1.89-3.5-1.89-2.38,0-4.47,1.5-5.9,3.71A15.64,15.64,0,0,0,5.46,45.6a15.64,15.64,0,0,0,2.29,8.46c1.44,2.21,3.53,3.71,5.9,3.71,1.33,0,2.43-.88,3.53-2a43.85,43.85,0,0,0,3.24-3.75,38.83,38.83,0,0,1,2.93-3.4,5.11,5.11,0,0,1,1-.74c0,1.25.13,3.8.15,6.9,0,1.79,0,3.56,0,4.92,0,.68-.06,1.25-.11,1.66a4.28,4.28,0,0,1-.09.47,3.49,3.49,0,0,1-2.84,1.57l-1-.07,0,1,0,2.27,0,.88h.86L32,67.46h.86l0-.88,0-2.27,0-1-1,.07a3.37,3.37,0,0,1-2.86-1.57c.12.15.07.1,0,0a4.5,4.5,0,0,1-.09-.47c-.06-.43-.13-1-.18-1.75-.09-1.41-.12-3.22-.15-5s0-3.62,0-5c0-.83,0-1.06,0-1.48,0,0,0,0,0,0a5.42,5.42,0,0,1,1.12.85,40.11,40.11,0,0,1,3,3.37A45.1,45.1,0,0,0,36.15,56C37.27,57.1,38.36,58,39.68,58c2.38,0,4.47-1.5,5.9-3.71a15.63,15.63,0,0,0,2.29-8.46,15.64,15.64,0,0,0-2.29-8.46c-1.44-2.21-3.53-3.71-5.9-3.71a5.46,5.46,0,0,0-3.48,1.82A47.69,47.69,0,0,0,32.87,39a33.68,33.68,0,0,1-3,3.13,4.92,4.92,0,0,1-.75.52,36,36,0,0,1,2.69-7.06c1.54-3.28,3.15-6.72,3.15-9.71a15.64,15.64,0,0,0-2.29-8.46C31.19,15.17,29.1,13.67,26.73,13.67Zm42.13,0-.9,1.84c-6.25,12.75-9.42,19.09-18.68,26l-.95.72.93.72C58.09,49.92,63,55,68.12,66.49l.82,1.82.79-1.84c4.63-10.93,9.06-17.15,18.86-23.9l1.23-.85L88.5,41C78.77,36,74.25,28.19,69.56,15.63ZM26.73,15.47c1.66,0,3.22,1,4.43,2.9a13.94,13.94,0,0,1,2,7.47c0,2.29-1.45,5.66-3,8.93S27,41.14,27,43.74v.63l.55.23a2.34,2.34,0,0,0,1.81-.07,6.26,6.26,0,0,0,1.59-1,34.22,34.22,0,0,0,3.22-3.31c1.09-1.22,2.2-2.47,3.19-3.37a4.8,4.8,0,0,1,2.31-1.37c1.66,0,3.22,1,4.43,2.9a13.94,13.94,0,0,1,2,7.47,13.94,13.94,0,0,1-2,7.47c-1.21,1.86-2.77,2.9-4.43,2.9a4.65,4.65,0,0,1-2.31-1.44,44.48,44.48,0,0,1-3.17-3.57A40.6,40.6,0,0,0,31,47.6a6.51,6.51,0,0,0-1.52-1.12,2.44,2.44,0,0,0-1.41-.23v0l-.22,0-1-.09v1s0,1,0,2.43,0,3.19,0,5,.08,3.66.18,5.13c0,.73.1,1.38.18,1.89a6.93,6.93,0,0,0,.11.7,1.52,1.52,0,0,0,.31.65A5,5,0,0,0,31.13,65v.63l-8.9.07V65.1A5.08,5.08,0,0,0,25.65,63a1.44,1.44,0,0,0,.29-.65,5.62,5.62,0,0,0,.13-.67c.06-.5.1-1.11.13-1.82.06-1.42.06-3.21,0-5,0-3.61-.15-7.27-.18-8l0-.61-.55-.2a2.23,2.23,0,0,0-1.81.16,6.43,6.43,0,0,0-1.52,1.15,39.06,39.06,0,0,0-3.11,3.58A43.29,43.29,0,0,1,16,54.51,4.59,4.59,0,0,1,13.66,56c-1.66,0-3.22-1-4.43-2.9a13.94,13.94,0,0,1-2-7.47,13.94,13.94,0,0,1,2-7.47c1.21-1.86,2.77-2.9,4.43-2.9A4.84,4.84,0,0,1,16,36.65a43.28,43.28,0,0,1,3.17,3.46,41.68,41.68,0,0,0,3.08,3.37,6.14,6.14,0,0,0,1.45,1.08,1.92,1.92,0,0,0,1.76,0l.42-.25,0-.49c.16-2.58-1.36-5.7-2.8-9s-2.82-6.71-2.82-9a13.94,13.94,0,0,1,2-7.47C23.51,16.51,25.07,15.47,26.73,15.47Zm41.95,2.61c4.32,11.11,9,18.8,17.85,23.84C77.83,48.16,73.15,54.5,68.87,64.13,64.06,54,59.09,48.58,51.16,42.3,59.5,35.79,63.19,29.22,68.67,18.08ZM17,69.44a10.65,10.65,0,0,0-4.38,1.1l-.09,0-.09,0C8.26,74,6.44,78,6.35,82.19s1.48,8.69,3.79,13.22C14.75,104.49,22.46,114,27,122.73l.15.32.33.12.26.09.71.24.35-.67c5-9.56,12.3-19.69,16.57-28.86,2.14-4.58,3.53-8.94,3.42-13a12.83,12.83,0,0,0-5.68-10.41l-.07,0-.07,0c-3.08-1.43-5.78-1.36-7.93-.31a11.92,11.92,0,0,0-4.89,5,26.61,26.61,0,0,0-2.36,5.67,27.44,27.44,0,0,0-1.5-4.09,16.12,16.12,0,0,0-3.48-5A8.34,8.34,0,0,0,17,69.44Zm52,.29-.84,1.35C64.56,77,57,84.9,52.13,92.19c-2.44,3.65-4.24,7.15-4.47,10.37a7.19,7.19,0,0,0,1.06,4.5,9.23,9.23,0,0,0,4.19,3.31h0l0,0c4.6,1.53,8.06.73,10.49-1.06a12.63,12.63,0,0,0,3.15-3.58c0,1.41.1,3.06.11,4.79,0,1.91,0,3.84-.09,5.31,0,.73-.09,1.35-.15,1.78a3.31,3.31,0,0,1-.09.42,6.1,6.1,0,0,1-3.9,1.48l-.95,0,0,1,0,2.07,0,.88h.86l13.55-.06h.85l0-.88,0-2,0-1-.94,0a6.15,6.15,0,0,1-3.88-1.5,3.28,3.28,0,0,1-.11-.42c-.07-.43-.15-1.05-.2-1.78-.11-1.45-.16-3.35-.18-5.24s0-3.78,0-5.24v-.21a15.91,15.91,0,0,0,3.3,4,8,8,0,0,0,8.55,1.57,11.71,11.71,0,0,0,5-3.48,7.31,7.31,0,0,0,1.52-4.7c-.07-3.35-2-6.91-4.52-10.57-5.1-7.32-13-15.18-15.8-20.8L69,69.73ZM17,71.24a6.5,6.5,0,0,1,4.58,1.89,14.57,14.57,0,0,1,3.08,4.45,30.86,30.86,0,0,1,2.25,7.09h1.72a29.56,29.56,0,0,1,3-8.55,10.19,10.19,0,0,1,4.12-4.25c1.67-.81,3.68-1,6.35.24a10.78,10.78,0,0,1,4.89,9c.1,3.53-1.18,7.66-3.26,12.12-4,8.56-10.81,18.22-15.84,27.6C23.21,112.15,16,103,11.7,94.58,9.46,90.18,8,86,8.11,82.23s1.59-7.07,5.4-10.12A8.73,8.73,0,0,1,17,71.24ZM68.9,73.17c3.41,6,10.57,13.15,15.2,19.81,2.47,3.54,4.13,6.9,4.19,9.56a5.37,5.37,0,0,1-1.15,3.55A10,10,0,0,1,82.86,109c-2.67,1.14-4.86.29-6.76-1.3a16.3,16.3,0,0,1-4-5.47l-.24-.53H69.91l0,.92c0,.07,0,1.18,0,2.65s0,3.37,0,5.29.08,3.84.2,5.35c.06.76.11,1.43.2,2a4.65,4.65,0,0,0,.18.72,1.28,1.28,0,0,0,.39.7,6.74,6.74,0,0,0,4.3,1.89v.34l-11.83.06v-.36a6.74,6.74,0,0,0,4.32-1.89,1.33,1.33,0,0,0,.4-.72,5.24,5.24,0,0,0,.15-.75c.08-.53.14-1.19.18-2,.08-1.53.1-3.46.09-5.4s-.07-3.86-.11-5.35c0-.75,0-1.37,0-1.85s0-.82,0-.83l0-.92H66.82l-.24.52a14.28,14.28,0,0,1-4.14,5.76c-2,1.46-4.69,2.18-8.83.83a7.4,7.4,0,0,1-3.41-2.63,5.31,5.31,0,0,1-.77-3.4c.19-2.6,1.8-5.93,4.16-9.47C58,86.54,64.91,79.2,68.9,73.17Z"/></g><rect class="f01fb87f-8dba-42ec-944f-296a8a881f80" x="-18" y="21" width="132" height="93" rx="8" ry="8" transform="translate(-19.5 115.5) rotate(-90)"/></g></g></svg>