<svg xmlns="http://www.w3.org/2000/svg" xmlns:xlink="http://www.w3.org/1999/xlink" viewBox="0 0 95 134"><defs><style>.\38 d0042dc-76f5-4a00-a2d5-2db247c85d2e,.f56c7272-7bc4-415d-b329-ac6ce00d36f9{fill:none;}.\30 d376c7a-cde5-446d-865b-68aad9a0eb7a{fill:#231f20;}.fc2d1655-f020-4856-b34c-a00c7ab87799{clip-path:url(#bf615f26-5fde-42f3-b6ea-5713662af5ee);}.\37 0cb6519-342e-4aa8-9419-3727802d03af{fill:#fff;}.\39 6dc26da-f5d3-422e-ba95-62e9bd5dff80{clip-path:url(#9a208035-a379-457b-a82b-a31fad27f98f);}.\34 41df873-3169-43a4-a48e-18bbc33d98cc{clip-path:url(#6a1ab2e1-177d-4cc6-9485-724caf8be44e);}.f00a3d8e-c75e-4a79-9efc-cd3d7322e5c1{clip-path:url(#6e15a77d-843c-410c-867e-054dc69cdcd5);}.\37 bfb262f-8da4-4cbb-a49e-389e976b57c9{clip-path:url(#3ffa10b6-967a-4198-ab13-1e82d857ef57);}.aa91374b-1a7c-4d93-a85a-5f5648b384b1{clip-path:url(#9596dc17-cca4-4343-9df2-dbc4c2faf543);}.\34 f27f9b8-26bf-45b0-9cf3-9dd14f03d6f0{clip-path:url(#9c65aea5-73be-4147-a084-0064c4bf685e);}.\30 dc8e6e8-f171-486c-8683-dc8859759980{clip-path:url(#94949497-1d02-4809-ae7c-b41605e855da);}.\34 4fc7003-8ed3-47b5-b0fd-be4de5fcc3b9{stroke:#fff;fill:url(#15bbe4e5-d14d-4efd-be85-c6ced236a37d);}.\34 4fc7003-8ed3-47b5-b0fd-be4de5fcc3b9,.f56c7272-7bc4-415d-b329-ac6ce00d36f9{stroke-miterlimit:10;}.f56c7272-7bc4-415d-b329-ac6ce00d36f9{stroke-width:2px;stroke:url(#e0b5444d-3a14-46a6-b084-385e455cbc73);}</style><clipPath id="bf615f26-5fde-42f3-b6ea-5713662af5ee"><rect class="8d0042dc-76f5-4a00-a2d5-2db247c85d2e" x="81.65" y="5.07" width="39.85" height="39.85"/></clipPath><clipPath id="9a208035-a379-457b-a82b-a31fad27f98f"><rect class="8d0042dc-76f5-4a00-a2d5-2db247c85d2e" x="30.87" y="-19.93" width="39.85" height="39.85"/></clipPath><clipPath id="6a1ab2e1-177d-4cc6-9485-724caf8be44e"><rect class="8d0042dc-76f5-4a00-a2d5-2db247c85d2e" x="-19.92" y="5.07" width="39.85" height="39.85"/></clipPath><clipPath id="6e15a77d-843c-410c-867e-054dc69cdcd5"><rect class="8d0042dc-76f5-4a00-a2d5-2db247c85d2e" x="81.65" y="55.07" width="39.85" height="39.85"/></clipPath><clipPath id="3ffa10b6-967a-4198-ab13-1e82d857ef57"><rect class="8d0042dc-76f5-4a00-a2d5-2db247c85d2e" x="30.87" y="30.07" width="39.85" height="39.85"/></clipPath><clipPath id="9596dc17-cca4-4343-9df2-dbc4c2faf543"><rect class="8d0042dc-76f5-4a00-a2d5-2db247c85d2e" x="-19.92" y="55.07" width="39.85" height="39.85"/></clipPath><clipPath id="9c65aea5-73be-4147-a084-0064c4bf685e"><rect class="8d0042dc-76f5-4a00-a2d5-2db247c85d2e" x="30.87" y="80.07" width="39.85" height="39.85"/></clipPath><clipPath id="94949497-1d02-4809-ae7c-b41605e855da"><path id="5c811fda-de70-49f7-a0c5-e6fcd3bfa30f" data-name="rect6472-823" class="8d0042dc-76f5-4a00-a2d5-2db247c85d2e" d="M8.81,1.44h78a7.56,7.56,0,0,1,7.81,7.28V125.28a7.56,7.56,0,0,1-7.81,7.28h-78A7.56,7.56,0,0,1,1,125.28V8.72A7.56,7.56,0,0,1,8.81,1.44Z"/></clipPath><pattern id="15bbe4e5-d14d-4efd-be85-c6ced236a37d" data-name="SVGID 15 " width="101.57" height="100" patternTransform="matrix(0.29, 0, 0, -0.28, -28.07, 210.6)" patternUnits="userSpaceOnUse" viewBox="0 0 101.57 100"><rect class="8d0042dc-76f5-4a00-a2d5-2db247c85d2e" width="101.57" height="100"/><rect class="8d0042dc-76f5-4a00-a2d5-2db247c85d2e" width="101.57" height="100"/><rect class="0d376c7a-cde5-446d-865b-68aad9a0eb7a" x="75.68" width="51.79" height="50"/><g class="fc2d1655-f020-4856-b34c-a00c7ab87799"><path class="70cb6519-342e-4aa8-9419-3727802d03af" d="M121.48,17.44a4.16,4.16,0,0,1-8.3,0h0v-.32a3.72,3.72,0,1,0-3.72,3.72A12,12,0,1,1,101.57,42a12,12,0,1,1-7.88-21.14A3.72,3.72,0,1,0,90,17.12h0c0,.11,0,.21,0,.31a4.16,4.16,0,0,1-8.3,0c0-.1,0-.21,0-.31h0A12,12,0,0,1,101.57,8a12,12,0,0,1,19.92,9.1v.32Zm-4.14-3.83a3.51,3.51,0,1,0,3.51,3.51A3.51,3.51,0,0,0,117.34,13.61Zm-7.89-7.88a11.32,11.32,0,0,0-7.66,3l-.22.2-.22-.2a11.38,11.38,0,0,0-18.74,5.78,4.16,4.16,0,0,1,7,1,4.37,4.37,0,1,1,4.05,6,11.39,11.39,0,1,0,7.66,19.81l.22-.2.22.2a11.39,11.39,0,1,0,7.66-19.81,4.37,4.37,0,1,1,4.05-6,4.16,4.16,0,0,1,7-1A11.4,11.4,0,0,0,109.45,5.73ZM85.81,13.62a3.51,3.51,0,1,0,3.51,3.51A3.51,3.51,0,0,0,85.81,13.62Z"/><path class="70cb6519-342e-4aa8-9419-3727802d03af" d="M113.51,15.49a4.37,4.37,0,1,0-4.05,6A11.39,11.39,0,1,1,101.8,41.3l-.22-.2-.22.2A11.39,11.39,0,1,1,93.7,21.49a4.37,4.37,0,1,0-4.05-6,4.16,4.16,0,0,0-7-1,11.38,11.38,0,0,1,18.74-5.78l.22.2.22-.2a11.39,11.39,0,0,1,18.74,5.76,4.13,4.13,0,0,0-3.2-1.5A4.18,4.18,0,0,0,113.51,15.49Zm-4.06,13a11.37,11.37,0,0,1-7.66-3l-.22-.2-.22.2a11.37,11.37,0,0,1-7.66,3,4.37,4.37,0,1,0,4.05,6,4.16,4.16,0,0,0,7.66,0,4.37,4.37,0,1,0,4.05-6Z"/><path class="70cb6519-342e-4aa8-9419-3727802d03af" d="M105.4,34.51a4.16,4.16,0,0,1-7.66,0,4.37,4.37,0,1,1-4.05-6,11.37,11.37,0,0,0,7.66-3l.22-.2.22.2a11.37,11.37,0,0,0,7.66,3,4.37,4.37,0,1,1-4.05,6Zm4.05-5.35a12,12,0,0,1-7.88-2.94,12,12,0,0,1-7.88,2.94,3.72,3.72,0,1,0,3.72,3.72c0-.11,0-.22,0-.32a4.16,4.16,0,0,1,8.3,0h0v.32a3.72,3.72,0,1,0,3.72-3.72Zm-7.88.21a3.51,3.51,0,1,0,3.51,3.51A3.51,3.51,0,0,0,101.57,29.37Z"/></g><rect class="0d376c7a-cde5-446d-865b-68aad9a0eb7a" x="24.9" y="-25" width="51.79" height="50"/><g class="96dc26da-f5d3-422e-ba95-62e9bd5dff80"><path class="70cb6519-342e-4aa8-9419-3727802d03af" d="M70.7-7.56a4.17,4.17,0,0,1-4.15,3.84A4.17,4.17,0,0,1,62.4-7.56h0v-.32a3.73,3.73,0,0,0-3.72-3.72,3.73,3.73,0,0,0-3.72,3.72,3.73,3.73,0,0,0,3.72,3.72A12,12,0,1,1,50.79,17,12,12,0,1,1,42.91-4.16a3.73,3.73,0,0,0,3.72-3.72,3.73,3.73,0,0,0-3.72-3.72,3.73,3.73,0,0,0-3.72,3.72h0c0,.11,0,.21,0,.31A4.17,4.17,0,0,1,35-3.71a4.17,4.17,0,0,1-4.15-3.85c0-.1,0-.21,0-.31h0a12.05,12.05,0,0,1,12-12A12,12,0,0,1,50.79-17a12,12,0,0,1,7.88-2.94,12.05,12.05,0,0,1,12,12v.32Zm-4.15-3.83A3.51,3.51,0,0,0,63-7.88a3.51,3.51,0,0,0,3.51,3.51,3.51,3.51,0,0,0,3.51-3.51A3.51,3.51,0,0,0,66.55-11.39Zm-7.88-7.88a11.32,11.32,0,0,0-7.66,3l-.22.2-.22-.2a11.37,11.37,0,0,0-7.66-3,11.41,11.41,0,0,0-11.08,8.75A4.16,4.16,0,0,1,35-12,4.16,4.16,0,0,1,38.86-9.5a4.37,4.37,0,0,1,4.05-2.74,4.37,4.37,0,0,1,4.37,4.37A4.37,4.37,0,0,1,42.91-3.5a11.39,11.39,0,1,0,7.66,19.81l.22-.2.22.2A11.39,11.39,0,1,0,58.67-3.5,4.37,4.37,0,0,1,54.3-7.87a4.37,4.37,0,0,1,4.37-4.37A4.37,4.37,0,0,1,62.72-9.5,4.16,4.16,0,0,1,66.55-12a4.16,4.16,0,0,1,3.2,1.5A11.41,11.41,0,0,0,58.67-19.27ZM35-11.38a3.51,3.51,0,0,0-3.51,3.51A3.51,3.51,0,0,0,35-4.36a3.51,3.51,0,0,0,3.51-3.51A3.51,3.51,0,0,0,35-11.38Z"/><path class="70cb6519-342e-4aa8-9419-3727802d03af" d="M62.72-9.51a4.38,4.38,0,0,0-4.05-2.74A4.37,4.37,0,0,0,54.3-7.88a4.37,4.37,0,0,0,4.37,4.37A11.39,11.39,0,1,1,51,16.3l-.22-.2-.22.2A11.39,11.39,0,1,1,42.91-3.51a4.37,4.37,0,0,0,4.37-4.37,4.37,4.37,0,0,0-4.37-4.37,4.36,4.36,0,0,0-4.05,2.74A4.18,4.18,0,0,0,35-12a4.14,4.14,0,0,0-3.2,1.51,11.42,11.42,0,0,1,11.08-8.75,11.32,11.32,0,0,1,7.66,3l.22.2.22-.2a11.37,11.37,0,0,1,7.66-3,11.41,11.41,0,0,1,11.08,8.73,4.13,4.13,0,0,0-3.2-1.5A4.19,4.19,0,0,0,62.72-9.51Zm-4.05,13A11.37,11.37,0,0,1,51,.54l-.22-.2-.22.2a11.37,11.37,0,0,1-7.66,3,4.37,4.37,0,1,0,4.05,6,4.16,4.16,0,0,0,7.66,0,4.37,4.37,0,1,0,4.05-6Z"/><path class="70cb6519-342e-4aa8-9419-3727802d03af" d="M54.62,9.51a4.16,4.16,0,0,1-7.66,0,4.37,4.37,0,1,1-4.05-6,11.37,11.37,0,0,0,7.66-3l.22-.2.22.2a11.37,11.37,0,0,0,7.66,3,4.37,4.37,0,1,1-4,6Zm4-5.35a12,12,0,0,1-7.88-2.94,12,12,0,0,1-7.88,2.94,3.72,3.72,0,1,0,3.72,3.72c0-.11,0-.22,0-.32a4.16,4.16,0,0,1,8.3,0h0v.32a3.72,3.72,0,1,0,3.72-3.72Zm-7.88.21A3.51,3.51,0,1,0,54.3,7.88,3.51,3.51,0,0,0,50.79,4.37Z"/></g><rect class="0d376c7a-cde5-446d-865b-68aad9a0eb7a" x="-25.89" width="51.79" height="50"/><g class="441df873-3169-43a4-a48e-18bbc33d98cc"><path class="70cb6519-342e-4aa8-9419-3727802d03af" d="M19.91,17.44a4.16,4.16,0,0,1-8.3,0h0v-.32a3.72,3.72,0,1,0-3.72,3.72A12,12,0,1,1,0,42a12,12,0,0,1-7.88,2.94,12.05,12.05,0,0,1-12-12,12.05,12.05,0,0,1,12-12,3.73,3.73,0,0,0,3.72-3.72A3.73,3.73,0,0,0-7.88,13.4a3.73,3.73,0,0,0-3.72,3.72h0c0,.11,0,.21,0,.31a4.17,4.17,0,0,1-4.15,3.85,4.17,4.17,0,0,1-4.15-3.85c0-.1,0-.21,0-.31h0a12.05,12.05,0,0,1,12-12A12,12,0,0,1,0,8a12,12,0,0,1,19.92,9.1v.32Zm-4.15-3.83a3.51,3.51,0,1,0,3.51,3.51A3.51,3.51,0,0,0,15.76,13.61ZM7.88,5.73a11.32,11.32,0,0,0-7.66,3L0,8.9l-.22-.2a11.37,11.37,0,0,0-7.66-3A11.41,11.41,0,0,0-19,14.48,4.16,4.16,0,0,1-15.76,13a4.16,4.16,0,0,1,3.83,2.53,4.37,4.37,0,0,1,4.05-2.74,4.37,4.37,0,0,1,4.37,4.37A4.37,4.37,0,0,1-7.88,21.5,11.4,11.4,0,0,0-19.27,32.89,11.4,11.4,0,0,0-7.88,44.28a11.32,11.32,0,0,0,7.66-3l.22-.2.22.2A11.39,11.39,0,1,0,7.88,21.5a4.37,4.37,0,1,1,4-6,4.16,4.16,0,0,1,7-1A11.4,11.4,0,0,0,7.88,5.73Zm-23.64,7.89a3.51,3.51,0,0,0-3.51,3.51,3.51,3.51,0,0,0,3.51,3.51,3.51,3.51,0,0,0,3.51-3.51A3.51,3.51,0,0,0-15.76,13.62Z"/><path class="70cb6519-342e-4aa8-9419-3727802d03af" d="M11.93,15.49a4.37,4.37,0,1,0-4,6A11.39,11.39,0,1,1,.22,41.3L0,41.1l-.22.2a11.37,11.37,0,0,1-7.66,3A11.4,11.4,0,0,1-19.27,32.88,11.4,11.4,0,0,1-7.88,21.49a4.37,4.37,0,0,0,4.37-4.37,4.37,4.37,0,0,0-4.37-4.37,4.36,4.36,0,0,0-4.05,2.74A4.18,4.18,0,0,0-15.76,13,4.14,4.14,0,0,0-19,14.47,11.42,11.42,0,0,1-7.88,5.72a11.32,11.32,0,0,1,7.66,3l.22.2.22-.2A11.39,11.39,0,0,1,19,14.45a4.13,4.13,0,0,0-3.2-1.5A4.2,4.2,0,0,0,11.93,15.49Zm-4,13a11.37,11.37,0,0,1-7.66-3L0,25.34l-.22.2a11.37,11.37,0,0,1-7.66,3,4.37,4.37,0,0,0-4.37,4.37,4.37,4.37,0,0,0,4.37,4.37,4.37,4.37,0,0,0,4-2.74A4.15,4.15,0,0,0,0,37a4.16,4.16,0,0,0,3.83-2.53,4.37,4.37,0,1,0,4-6Z"/><path class="70cb6519-342e-4aa8-9419-3727802d03af" d="M3.83,34.51A4.15,4.15,0,0,1,0,37a4.16,4.16,0,0,1-3.83-2.53,4.38,4.38,0,0,1-4.05,2.74,4.37,4.37,0,0,1-4.37-4.37,4.37,4.37,0,0,1,4.37-4.37,11.37,11.37,0,0,0,7.66-3l.22-.2.22.2a11.37,11.37,0,0,0,7.66,3,4.37,4.37,0,1,1-4,6Zm4.05-5.35A12,12,0,0,1,0,26.22a12,12,0,0,1-7.88,2.94,3.73,3.73,0,0,0-3.72,3.72A3.73,3.73,0,0,0-7.88,36.6a3.73,3.73,0,0,0,3.72-3.72c0-.11,0-.22,0-.32A4.17,4.17,0,0,1,0,28.72a4.17,4.17,0,0,1,4.15,3.84h0v.32a3.72,3.72,0,1,0,3.72-3.72ZM0,29.37a3.51,3.51,0,1,0,0,7,3.52,3.52,0,0,0,3.51-3.51A3.5,3.5,0,0,0,0,29.37Z"/></g><rect class="0d376c7a-cde5-446d-865b-68aad9a0eb7a" x="75.68" y="50" width="51.79" height="50"/><g class="f00a3d8e-c75e-4a79-9efc-cd3d7322e5c1"><path class="70cb6519-342e-4aa8-9419-3727802d03af" d="M121.48,67.44a4.16,4.16,0,0,1-8.3,0h0v-.32a3.72,3.72,0,1,0-3.72,3.72A12,12,0,1,1,101.57,92a12,12,0,1,1-7.88-21.14A3.72,3.72,0,1,0,90,67.12h0c0,.11,0,.21,0,.31a4.16,4.16,0,0,1-8.3,0c0-.1,0-.21,0-.31h0A12,12,0,0,1,101.57,58a12,12,0,0,1,19.92,9.1v.32Zm-4.14-3.83a3.51,3.51,0,1,0,3.51,3.51A3.51,3.51,0,0,0,117.34,63.61Zm-7.89-7.88a11.32,11.32,0,0,0-7.66,3l-.22.2-.22-.2a11.38,11.38,0,0,0-18.74,5.78,4.16,4.16,0,0,1,7,1,4.37,4.37,0,1,1,4.05,6,11.39,11.39,0,1,0,7.66,19.81l.22-.2.22.2a11.39,11.39,0,1,0,7.66-19.81,4.37,4.37,0,1,1,4.05-6,4.16,4.16,0,0,1,7-1A11.4,11.4,0,0,0,109.45,55.73ZM85.81,63.62a3.51,3.51,0,1,0,3.51,3.51A3.51,3.51,0,0,0,85.81,63.62Z"/><path class="70cb6519-342e-4aa8-9419-3727802d03af" d="M113.51,65.49a4.37,4.37,0,1,0-4.05,6A11.39,11.39,0,1,1,101.8,91.3l-.22-.2-.22.2A11.39,11.39,0,1,1,93.7,71.49a4.37,4.37,0,1,0-4.05-6,4.16,4.16,0,0,0-7-1,11.38,11.38,0,0,1,18.74-5.78l.22.2.22-.2a11.39,11.39,0,0,1,18.74,5.76,4.13,4.13,0,0,0-3.2-1.5A4.18,4.18,0,0,0,113.51,65.49Zm-4.06,13a11.37,11.37,0,0,1-7.66-3l-.22-.2-.22.2a11.37,11.37,0,0,1-7.66,3,4.37,4.37,0,1,0,4.05,6,4.16,4.16,0,0,0,7.66,0,4.37,4.37,0,1,0,4.05-6Z"/><path class="70cb6519-342e-4aa8-9419-3727802d03af" d="M105.4,84.51a4.16,4.16,0,0,1-7.66,0,4.37,4.37,0,1,1-4.05-6,11.37,11.37,0,0,0,7.66-3l.22-.2.22.2a11.37,11.37,0,0,0,7.66,3,4.37,4.37,0,1,1-4.05,6Zm4.05-5.35a12,12,0,0,1-7.88-2.94,12,12,0,0,1-7.88,2.94,3.72,3.72,0,1,0,3.72,3.72c0-.11,0-.22,0-.32a4.16,4.16,0,0,1,8.3,0h0v.32a3.72,3.72,0,1,0,3.72-3.72Zm-7.88.21a3.51,3.51,0,1,0,3.51,3.51A3.51,3.51,0,0,0,101.57,79.37Z"/></g><rect class="0d376c7a-cde5-446d-865b-68aad9a0eb7a" x="24.9" y="25" width="51.79" height="50"/><g class="7bfb262f-8da4-4cbb-a49e-389e976b57c9"><path class="70cb6519-342e-4aa8-9419-3727802d03af" d="M70.7,42.44a4.16,4.16,0,0,1-8.3,0h0v-.32a3.72,3.72,0,1,0-3.72,3.72A12,12,0,1,1,50.79,67a12,12,0,1,1-7.88-21.14,3.72,3.72,0,1,0-3.72-3.72h0c0,.11,0,.21,0,.31a4.16,4.16,0,0,1-8.3,0c0-.1,0-.21,0-.31h0A12,12,0,0,1,50.79,33a12,12,0,0,1,19.92,9.1v.32Zm-4.15-3.83a3.51,3.51,0,1,0,3.51,3.51A3.51,3.51,0,0,0,66.55,38.61Zm-7.88-7.88a11.32,11.32,0,0,0-7.66,3l-.22.2-.22-.2a11.38,11.38,0,0,0-18.74,5.78,4.16,4.16,0,0,1,7,1,4.37,4.37,0,1,1,4.05,6,11.39,11.39,0,1,0,7.66,19.81l.22-.2.22.2A11.39,11.39,0,1,0,58.67,46.5a4.37,4.37,0,1,1,4.05-6,4.16,4.16,0,0,1,7-1A11.41,11.41,0,0,0,58.67,30.73ZM35,38.62a3.51,3.51,0,1,0,3.51,3.51A3.51,3.51,0,0,0,35,38.62Z"/><path class="70cb6519-342e-4aa8-9419-3727802d03af" d="M62.72,40.49a4.37,4.37,0,1,0-4.05,6A11.39,11.39,0,1,1,51,66.3l-.22-.2-.22.2a11.39,11.39,0,1,1-7.66-19.81,4.37,4.37,0,1,0-4.05-6,4.16,4.16,0,0,0-7-1,11.38,11.38,0,0,1,18.74-5.78l.22.2.22-.2a11.39,11.39,0,0,1,18.74,5.76,4.13,4.13,0,0,0-3.2-1.5A4.19,4.19,0,0,0,62.72,40.49Zm-4.05,13a11.37,11.37,0,0,1-7.66-3l-.22-.2-.22.2a11.37,11.37,0,0,1-7.66,3,4.37,4.37,0,1,0,4.05,6,4.16,4.16,0,0,0,7.66,0,4.37,4.37,0,1,0,4.05-6Z"/><path class="70cb6519-342e-4aa8-9419-3727802d03af" d="M54.62,59.51a4.16,4.16,0,0,1-7.66,0,4.37,4.37,0,1,1-4.05-6,11.37,11.37,0,0,0,7.66-3l.22-.2.22.2a11.37,11.37,0,0,0,7.66,3,4.37,4.37,0,1,1-4,6Zm4-5.35a12,12,0,0,1-7.88-2.94,12,12,0,0,1-7.88,2.94,3.72,3.72,0,1,0,3.72,3.72c0-.11,0-.22,0-.32a4.16,4.16,0,0,1,8.3,0h0v.32a3.72,3.72,0,1,0,3.72-3.72Zm-7.88.21a3.51,3.51,0,1,0,3.51,3.51A3.51,3.51,0,0,0,50.79,54.37Z"/></g><rect class="0d376c7a-cde5-446d-865b-68aad9a0eb7a" x="-25.89" y="50" width="51.79" height="50"/><g class="aa91374b-1a7c-4d93-a85a-5f5648b384b1"><path class="70cb6519-342e-4aa8-9419-3727802d03af" d="M19.91,67.44a4.16,4.16,0,0,1-8.3,0h0v-.32a3.72,3.72,0,1,0-3.72,3.72A12,12,0,1,1,0,92a12,12,0,0,1-7.88,2.94,12.05,12.05,0,0,1-12-12,12.05,12.05,0,0,1,12-12,3.73,3.73,0,0,0,3.72-3.72A3.73,3.73,0,0,0-7.88,63.4a3.73,3.73,0,0,0-3.72,3.72h0c0,.11,0,.21,0,.31a4.17,4.17,0,0,1-4.15,3.85,4.17,4.17,0,0,1-4.15-3.85c0-.1,0-.21,0-.31h0a12.05,12.05,0,0,1,12-12A12,12,0,0,1,0,58a12,12,0,0,1,19.92,9.1v.32Zm-4.15-3.83a3.51,3.51,0,1,0,3.51,3.51A3.51,3.51,0,0,0,15.76,63.61ZM7.88,55.73a11.32,11.32,0,0,0-7.66,3L0,58.9l-.22-.2a11.37,11.37,0,0,0-7.66-3A11.41,11.41,0,0,0-19,64.48,4.16,4.16,0,0,1-15.76,63a4.16,4.16,0,0,1,3.83,2.53,4.37,4.37,0,0,1,4.05-2.74,4.37,4.37,0,0,1,4.37,4.37A4.37,4.37,0,0,1-7.88,71.5,11.4,11.4,0,0,0-19.27,82.89,11.4,11.4,0,0,0-7.88,94.28a11.32,11.32,0,0,0,7.66-3l.22-.2.22.2A11.39,11.39,0,1,0,7.88,71.5a4.37,4.37,0,1,1,4-6,4.16,4.16,0,0,1,7-1A11.4,11.4,0,0,0,7.88,55.73Zm-23.64,7.89a3.51,3.51,0,0,0-3.51,3.51,3.51,3.51,0,0,0,3.51,3.51,3.51,3.51,0,0,0,3.51-3.51A3.51,3.51,0,0,0-15.76,63.62Z"/><path class="70cb6519-342e-4aa8-9419-3727802d03af" d="M11.93,65.49a4.37,4.37,0,1,0-4,6A11.39,11.39,0,1,1,.22,91.3L0,91.1l-.22.2a11.37,11.37,0,0,1-7.66,3A11.4,11.4,0,0,1-19.27,82.88,11.4,11.4,0,0,1-7.88,71.49a4.37,4.37,0,0,0,4.37-4.37,4.37,4.37,0,0,0-4.37-4.37,4.36,4.36,0,0,0-4.05,2.74A4.18,4.18,0,0,0-15.76,63,4.14,4.14,0,0,0-19,64.47,11.42,11.42,0,0,1-7.88,55.72a11.32,11.32,0,0,1,7.66,3l.22.2.22-.2A11.39,11.39,0,0,1,19,64.45a4.13,4.13,0,0,0-3.2-1.5A4.2,4.2,0,0,0,11.93,65.49Zm-4,13a11.37,11.37,0,0,1-7.66-3L0,75.34l-.22.2a11.37,11.37,0,0,1-7.66,3,4.37,4.37,0,0,0-4.37,4.37,4.37,4.37,0,0,0,4.37,4.37,4.37,4.37,0,0,0,4-2.74A4.15,4.15,0,0,0,0,87a4.16,4.16,0,0,0,3.83-2.53,4.37,4.37,0,1,0,4-6Z"/><path class="70cb6519-342e-4aa8-9419-3727802d03af" d="M3.83,84.51A4.15,4.15,0,0,1,0,87a4.16,4.16,0,0,1-3.83-2.53,4.38,4.38,0,0,1-4.05,2.74,4.37,4.37,0,0,1-4.37-4.37,4.37,4.37,0,0,1,4.37-4.37,11.37,11.37,0,0,0,7.66-3l.22-.2.22.2a11.37,11.37,0,0,0,7.66,3,4.37,4.37,0,1,1-4,6Zm4.05-5.35A12,12,0,0,1,0,76.22a12,12,0,0,1-7.88,2.94,3.73,3.73,0,0,0-3.72,3.72A3.73,3.73,0,0,0-7.88,86.6a3.73,3.73,0,0,0,3.72-3.72c0-.11,0-.22,0-.32A4.17,4.17,0,0,1,0,78.72a4.17,4.17,0,0,1,4.15,3.84h0v.32a3.72,3.72,0,1,0,3.72-3.72ZM0,79.37a3.51,3.51,0,0,0,0,7,3.52,3.52,0,0,0,3.51-3.51A3.5,3.5,0,0,0,0,79.37Z"/></g><rect class="0d376c7a-cde5-446d-865b-68aad9a0eb7a" x="24.9" y="75" width="51.79" height="50"/><g class="4f27f9b8-26bf-45b0-9cf3-9dd14f03d6f0"><path class="70cb6519-342e-4aa8-9419-3727802d03af" d="M70.7,92.44a4.16,4.16,0,0,1-8.3,0h0v-.32a3.72,3.72,0,1,0-3.72,3.72A12,12,0,1,1,50.79,117a12,12,0,1,1-7.88-21.14,3.72,3.72,0,1,0-3.72-3.72h0c0,.11,0,.21,0,.31a4.16,4.16,0,0,1-8.3,0c0-.1,0-.21,0-.31h0A12,12,0,0,1,50.79,83a12,12,0,0,1,19.92,9.1v.32Zm-4.15-3.83a3.51,3.51,0,1,0,3.51,3.51A3.51,3.51,0,0,0,66.55,88.61Zm-7.88-7.88a11.32,11.32,0,0,0-7.66,3l-.22.2-.22-.2a11.38,11.38,0,0,0-18.74,5.78,4.16,4.16,0,0,1,7,1,4.37,4.37,0,1,1,4.05,6,11.39,11.39,0,1,0,7.66,19.81l.22-.2.22.2A11.39,11.39,0,1,0,58.67,96.5a4.37,4.37,0,1,1,4.05-6,4.16,4.16,0,0,1,7-1A11.41,11.41,0,0,0,58.67,80.73ZM35,88.62a3.51,3.51,0,1,0,3.51,3.51A3.51,3.51,0,0,0,35,88.62Z"/><path class="70cb6519-342e-4aa8-9419-3727802d03af" d="M62.72,90.49a4.37,4.37,0,1,0-4.05,6A11.39,11.39,0,1,1,51,116.3l-.22-.2-.22.2a11.39,11.39,0,1,1-7.66-19.81,4.37,4.37,0,1,0-4.05-6,4.16,4.16,0,0,0-7-1,11.38,11.38,0,0,1,18.74-5.78l.22.2.22-.2a11.39,11.39,0,0,1,18.74,5.76,4.13,4.13,0,0,0-3.2-1.5A4.19,4.19,0,0,0,62.72,90.49Zm-4.05,13a11.37,11.37,0,0,1-7.66-3l-.22-.2-.22.2a11.37,11.37,0,0,1-7.66,3,4.37,4.37,0,1,0,4.05,6,4.16,4.16,0,0,0,7.66,0,4.37,4.37,0,1,0,4.05-6Z"/></g></pattern><linearGradient id="e0b5444d-3a14-46a6-b084-385e455cbc73" x1="-797.16" y1="-1614.96" x2="-663.16" y2="-1614.96" gradientTransform="translate(777.66 1681.96)" gradientUnits="userSpaceOnUse"><stop offset="0" stop-color="#0bcdd6"/><stop offset="0.14" stop-color="#fff"/><stop offset="0.29" stop-color="#34d5dd"/><stop offset="0.44" stop-color="#fff"/><stop offset="0.58" stop-color="#0bcdd6"/><stop offset="0.72" stop-color="#fff"/><stop offset="0.87" stop-color="#0bcdd6"/><stop offset="1" stop-color="#fff"/></linearGradient></defs><title>Logo Card Back Button - FINAL</title><g id="9f8c3626-11ab-43bf-91c4-582ff4f15629" data-name="Layer 2"><g id="0e6cf7f3-aa38-41e2-9ce6-90be8ff400e6" data-name="Layer 1"><g class="0dc8e6e8-f171-486c-8683-dc8859759980"><image width="1371" height="1922" transform="translate(0.5 1.44) scale(0.07 0.07)" xlink:href="../../All of the cards/Back of the Cards/Deadly Woman - poker back.png"/></g><path class="0d376c7a-cde5-446d-865b-68aad9a0eb7a" d="M83.74,133.87H5.15A4.65,4.65,0,0,1,.5,129.22V5A4.65,4.65,0,0,1,5.15.39H83.74A4.65,4.65,0,0,1,88.39,5V129.22A4.65,4.65,0,0,1,83.74,133.87Z"/><path class="0d376c7a-cde5-446d-865b-68aad9a0eb7a" d="M88.58,133.87H5.42A4.79,4.79,0,0,1,.5,129.22V5A4.79,4.79,0,0,1,5.42.39H88.58A4.79,4.79,0,0,1,93.5,5V129.22A4.8,4.8,0,0,1,88.58,133.87Z"/><path class="44fc7003-8ed3-47b5-b0fd-be4de5fcc3b9" d="M88.73,131H5.26a2.08,2.08,0,0,1-2.13-2V5.3a2.07,2.07,0,0,1,2.13-2H88.73a2.07,2.07,0,0,1,2.13,2V129A2.07,2.07,0,0,1,88.73,131Z"/><rect class="f56c7272-7bc4-415d-b329-ac6ce00d36f9" x="-18.5" y="20.5" width="132" height="93" rx="5.97" ry="5.97" transform="translate(-19.5 114.5) rotate(-90)"/></g></g></svg>