<svg xmlns="http://www.w3.org/2000/svg" xmlns:xlink="http://www.w3.org/1999/xlink" viewBox="0 0 493.64 750"><defs><style>.f33f9dd1-10a7-4871-a52e-41331bf19983{fill:none;}.ea459448-f879-4d40-bfac-0585f4633cbd{fill:#231f20;}.\36 ef7409d-297b-4d87-a1cb-ed405cb290bf{clip-path:url(#d6c336a0-26f5-43aa-b733-151d86b523e4);}.\37 b8f7288-d7b3-4f93-8e39-8201a733c79d{fill:#fff;}.\37 023b0ab-6b0e-494b-a34b-4a30b8ebbd1d{clip-path:url(#949c4972-2b7b-4ba3-9fc0-a9d6abfdb0fb);}.\39 acb95bb-0969-4adf-8125-5354a162fe8a{clip-path:url(#c9a27dc2-e2d1-4450-abc9-91355cc7b704);}.cdb56712-e9d4-4544-a8d4-f6aa6938e098{clip-path:url(#debf318d-00aa-4e2c-81ba-f35caeaa2015);}.e975fc2b-89f3-4558-9723-837bd57b6117{clip-path:url(#df9c674d-edaa-4009-bf82-b8070b876869);}.\31 bf37134-7d66-477c-81f8-aec791c92ffa{clip-path:url(#606a9843-21ae-4982-aae1-caeab12a0b9e);}.\38 0f68bdc-6cfd-4a9c-a3cc-f16325e05813{clip-path:url(#04561d05-b479-49c9-9e11-aba4f3fd4c26);}.c55e00e6-cf27-479e-a8b6-897d4488199f{stroke:#fff;stroke-miterlimit:10;fill:url(#783be09e-1dec-4ba4-8e34-3ca024c9c375);}</style><clipPath id="d6c336a0-26f5-43aa-b733-151d86b523e4"><rect class="f33f9dd1-10a7-4871-a52e-41331bf19983" x="81.6" y="55.1" width="39.8" height="39.8"/></clipPath><clipPath id="949c4972-2b7b-4ba3-9fc0-a9d6abfdb0fb"><rect class="f33f9dd1-10a7-4871-a52e-41331bf19983" x="30.9" y="80.1" width="39.9" height="39.8"/></clipPath><clipPath id="c9a27dc2-e2d1-4450-abc9-91355cc7b704"><rect class="f33f9dd1-10a7-4871-a52e-41331bf19983" x="-19.9" y="55.1" width="39.8" height="39.8"/></clipPath><clipPath id="debf318d-00aa-4e2c-81ba-f35caeaa2015"><rect class="f33f9dd1-10a7-4871-a52e-41331bf19983" x="81.6" y="5.1" width="39.8" height="39.8"/></clipPath><clipPath id="df9c674d-edaa-4009-bf82-b8070b876869"><rect class="f33f9dd1-10a7-4871-a52e-41331bf19983" x="30.9" y="30.1" width="39.9" height="39.8"/></clipPath><clipPath id="606a9843-21ae-4982-aae1-caeab12a0b9e"><rect class="f33f9dd1-10a7-4871-a52e-41331bf19983" x="-19.9" y="5.1" width="39.8" height="39.8"/></clipPath><clipPath id="04561d05-b479-49c9-9e11-aba4f3fd4c26"><rect class="f33f9dd1-10a7-4871-a52e-41331bf19983" x="30.9" y="-19.9" width="39.9" height="39.8"/></clipPath><pattern id="783be09e-1dec-4ba4-8e34-3ca024c9c375" data-name="SVGID 17 " width="101.6" height="100" patternTransform="translate(-308.01 25417.71) scale(1.55)" patternUnits="userSpaceOnUse" viewBox="0 0 101.6 100"><rect class="f33f9dd1-10a7-4871-a52e-41331bf19983" width="101.6" height="100"/><rect class="f33f9dd1-10a7-4871-a52e-41331bf19983" width="101.6" height="100"/><rect class="f33f9dd1-10a7-4871-a52e-41331bf19983" width="101.6" height="100"/><rect class="ea459448-f879-4d40-bfac-0585f4633cbd" x="75.7" y="50" width="51.8" height="50"/><g class="6ef7409d-297b-4d87-a1cb-ed405cb290bf"><path class="7b8f7288-d7b3-4f93-8e39-8201a733c79d" d="M121.5,82.6a4.21,4.21,0,0,0-4.1-3.8,4.07,4.07,0,0,0-4.1,3.8h0v.3a3.7,3.7,0,1,1-3.7-3.7,12,12,0,1,0-7.9-21.1,12,12,0,1,0-7.9,21.1,3.69,3.69,0,0,1,3.7,3.7,3.7,3.7,0,0,1-7.4,0h0v-.3a4.15,4.15,0,0,0-4.2-3.8,4.23,4.23,0,0,0-4.2,3.8v.3h0A12.06,12.06,0,0,0,101.6,92a12.06,12.06,0,0,0,19.9-9.1v-.3Zm-4.2,3.8a3.5,3.5,0,1,1,3.5-3.5A3.48,3.48,0,0,1,117.3,86.4Zm-7.9,7.9a11.62,11.62,0,0,1-7.7-3l-.2-.2-.2.2a11.39,11.39,0,0,1-18.8-5.8A4.25,4.25,0,0,0,85.7,87a4.06,4.06,0,0,0,3.8-2.5,4.42,4.42,0,1,0,4.1-6.1,11.4,11.4,0,1,1,0-22.8,11.62,11.62,0,0,1,7.7,3l.2.2.2-.2a11.4,11.4,0,1,1,7.7,19.8,4.4,4.4,0,0,0,0,8.8,4.5,4.5,0,0,0,4.1-2.7,4.06,4.06,0,0,0,3.8,2.5,4.25,4.25,0,0,0,3.2-1.5A11.36,11.36,0,0,1,109.4,94.3ZM85.8,86.4a3.5,3.5,0,1,1,3.5-3.5A3.54,3.54,0,0,1,85.8,86.4Z"/><path class="7b8f7288-d7b3-4f93-8e39-8201a733c79d" d="M113.5,84.5a4.3,4.3,0,0,1-4.1,2.7,4.4,4.4,0,0,1,0-8.8,11.4,11.4,0,0,0,0-22.8,11.62,11.62,0,0,0-7.7,3l-.2.2-.2-.2a11.4,11.4,0,1,0-7.7,19.8,4.4,4.4,0,0,1,0,8.8,4.5,4.5,0,0,1-4.1-2.7A4.06,4.06,0,0,1,85.7,87a4.25,4.25,0,0,1-3.2-1.5,11.47,11.47,0,0,0,11.1,8.8,11.62,11.62,0,0,0,7.7-3l.2-.2.2.2a11.41,11.41,0,0,0,18.8-5.7,4.25,4.25,0,0,1-3.2,1.5A4.31,4.31,0,0,1,113.5,84.5Zm-4.1-13a11.62,11.62,0,0,0-7.7,3l-.2.2-.2-.2a11.43,11.43,0,0,0-7.7-3,4.4,4.4,0,1,1,0-8.8,4.5,4.5,0,0,1,4.1,2.7,4.14,4.14,0,0,1,7.6,0,4.3,4.3,0,0,1,4.1-2.7,4.44,4.44,0,0,1,4.4,4.4A4.37,4.37,0,0,1,109.4,71.5Z"/><path class="7b8f7288-d7b3-4f93-8e39-8201a733c79d" d="M105.4,65.5a4.14,4.14,0,0,0-7.6,0,4.42,4.42,0,1,0-4.1,6.1,11.62,11.62,0,0,1,7.7,3l.2.2.2-.2a11.43,11.43,0,0,1,7.7-3,4.4,4.4,0,0,0,0-8.8A4.3,4.3,0,0,0,105.4,65.5Zm4,5.3a12,12,0,0,0-7.9,2.9,12,12,0,0,0-7.9-2.9,3.69,3.69,0,0,1-3.7-3.7,3.7,3.7,0,0,1,7.4,0v.3a4.23,4.23,0,0,0,4.2,3.8,4.07,4.07,0,0,0,4.1-3.8h0v-.3a3.7,3.7,0,0,1,7.4,0A3.61,3.61,0,0,1,109.4,70.8Zm-7.8-.2a3.5,3.5,0,1,1,3.5-3.5A3.48,3.48,0,0,1,101.6,70.6Z"/></g><rect class="ea459448-f879-4d40-bfac-0585f4633cbd" x="24.9" y="75" width="51.8" height="50"/><g class="7023b0ab-6b0e-494b-a34b-4a30b8ebbd1d"><path class="7b8f7288-d7b3-4f93-8e39-8201a733c79d" d="M70.7,107.6a4.22,4.22,0,0,0-8.4,0h0v.3a3.7,3.7,0,0,1-7.4,0,3.69,3.69,0,0,1,3.7-3.7,12,12,0,1,0-7.9-21.1,12,12,0,1,0-7.9,21.1,3.69,3.69,0,0,1,3.7,3.7,3.7,3.7,0,0,1-7.4,0h0v-.3a4.32,4.32,0,0,0-4.2-3.9,4.24,4.24,0,0,0-4.2,3.9v.3h0A12.06,12.06,0,0,0,50.6,117a12.06,12.06,0,0,0,19.9-9.1l.2-.3Zm-4.2,3.8a3.5,3.5,0,1,1,3.5-3.5A3.48,3.48,0,0,1,66.5,111.4Zm-7.8,7.9a11.62,11.62,0,0,1-7.7-3l-.2-.2-.2.2a11.39,11.39,0,0,1-18.8-5.8A4.25,4.25,0,0,0,35,112a4.06,4.06,0,0,0,3.8-2.5,4.42,4.42,0,1,0,4.1-6.1,11.4,11.4,0,0,1,0-22.8,11.62,11.62,0,0,1,7.7,3l.2.2.2-.2a11.4,11.4,0,1,1,7.7,19.8,4.4,4.4,0,1,0,0,8.8,4.5,4.5,0,0,0,4.1-2.7,4.06,4.06,0,0,0,3.8,2.5,4.25,4.25,0,0,0,3.2-1.5A11.53,11.53,0,0,1,58.7,119.3ZM35,111.4a3.5,3.5,0,1,1,3.5-3.5A3.54,3.54,0,0,1,35,111.4Z"/><path class="7b8f7288-d7b3-4f93-8e39-8201a733c79d" d="M62.7,109.5a4.42,4.42,0,1,1-4.1-6.1,11.4,11.4,0,0,0,0-22.8,11.15,11.15,0,0,0-7.7,3l-.2.2-.2-.2a11.4,11.4,0,1,0-7.7,19.8,4.4,4.4,0,1,1,0,8.8,4.5,4.5,0,0,1-4.1-2.7,4.06,4.06,0,0,1-3.8,2.5,4.25,4.25,0,0,1-3.2-1.5,11.47,11.47,0,0,0,11.1,8.8,11.62,11.62,0,0,0,7.7-3l.2-.2.2.2a11.41,11.41,0,0,0,18.8-5.7,4.25,4.25,0,0,1-3.2,1.5A4.31,4.31,0,0,1,62.7,109.5Zm-4-13a11.62,11.62,0,0,0-7.7,3l-.2.2-.2-.2a11.43,11.43,0,0,0-7.7-3,4.4,4.4,0,1,1,0-8.8A4.5,4.5,0,0,1,47,90.4a4.14,4.14,0,0,1,7.6,0,4.43,4.43,0,0,1,8.5,1.7A4.51,4.51,0,0,1,58.7,96.5Z"/><path class="7b8f7288-d7b3-4f93-8e39-8201a733c79d" d="M54.6,90.5a4.14,4.14,0,0,0-7.6,0,4.42,4.42,0,1,0-4.1,6.1,11.62,11.62,0,0,1,7.7,3l.2.2.2-.2a11.43,11.43,0,0,1,7.7-3,4.4,4.4,0,1,0-4.1-6.1Zm4.1,5.3a12,12,0,0,0-7.9,2.9,12,12,0,0,0-7.9-2.9,3.69,3.69,0,0,1-3.7-3.7,3.7,3.7,0,0,1,7.4,0v.3a4.22,4.22,0,0,0,8.4,0h0v-.3a3.7,3.7,0,0,1,7.4,0A3.69,3.69,0,0,1,58.7,95.8Zm-7.9-.2a3.5,3.5,0,1,1,3.5-3.5A3.48,3.48,0,0,1,50.8,95.6Z"/></g><rect class="ea459448-f879-4d40-bfac-0585f4633cbd" x="-25.9" y="50" width="51.8" height="50"/><g class="9acb95bb-0969-4adf-8125-5354a162fe8a"><path class="7b8f7288-d7b3-4f93-8e39-8201a733c79d" d="M19.9,82.6a4.22,4.22,0,0,0-8.4,0h0v.3a3.76,3.76,0,0,1-3.7,3.7,3.7,3.7,0,1,1,0-7.4A12,12,0,1,0-.1,58.1,12,12,0,0,0-8,55.2a12,12,0,0,0-12,12,12,12,0,0,0,12,12,3.76,3.76,0,0,1,3.7,3.7A3.76,3.76,0,0,1-8,86.6a3.76,3.76,0,0,1-3.7-3.7h0v-.3a4.15,4.15,0,0,0-4.2-3.8,4.23,4.23,0,0,0-4.2,3.8v.3h0a12,12,0,0,0,12,12A12,12,0,0,0-.2,92a12.06,12.06,0,0,0,19.9-9.1l.2-.3Zm-4.1,3.8a3.5,3.5,0,1,1,3.5-3.5A3.54,3.54,0,0,1,15.8,86.4ZM7.9,94.3a11.62,11.62,0,0,1-7.7-3L0,91.1l-.2.2a11.43,11.43,0,0,1-7.7,3A11.36,11.36,0,0,1-19,85.5,4.25,4.25,0,0,0-15.8,87,4.06,4.06,0,0,0-12,84.5a4.3,4.3,0,0,0,4.1,2.7,4.44,4.44,0,0,0,4.4-4.4,4.44,4.44,0,0,0-4.4-4.4A11.39,11.39,0,0,1-19.3,67,11.31,11.31,0,0,1-7.9,55.7a11.62,11.62,0,0,1,7.7,3l.2.2.2-.2A11.4,11.4,0,1,1,7.9,78.5a4.4,4.4,0,0,0,0,8.8,4.26,4.26,0,0,0,4-2.7,4.06,4.06,0,0,0,3.8,2.5,4.25,4.25,0,0,0,3.2-1.5A11.27,11.27,0,0,1,7.9,94.3Zm-23.7-7.9a3.54,3.54,0,0,1-3.5-3.5,3.54,3.54,0,0,1,3.5-3.5,3.54,3.54,0,0,1,3.5,3.5A3.48,3.48,0,0,1-15.8,86.4Z"/><path class="7b8f7288-d7b3-4f93-8e39-8201a733c79d" d="M11.9,84.5a4.36,4.36,0,0,1-4,2.7,4.4,4.4,0,0,1,0-8.8,11.35,11.35,0,1,0,0-22.7,11.62,11.62,0,0,0-7.7,3l-.2.2-.2-.2a11.43,11.43,0,0,0-7.7-3A11.39,11.39,0,0,0-19.3,67.1,11.39,11.39,0,0,0-7.9,78.5a4.44,4.44,0,0,1,4.4,4.4,4.44,4.44,0,0,1-4.4,4.4A4.5,4.5,0,0,1-12,84.6a4.06,4.06,0,0,1-3.8,2.5A4.25,4.25,0,0,1-19,85.6,11.47,11.47,0,0,0-7.9,94.4a11.62,11.62,0,0,0,7.7-3l.2-.2.2.2A11.41,11.41,0,0,0,19,85.7a4.25,4.25,0,0,1-3.2,1.5A4.74,4.74,0,0,1,11.9,84.5Zm-4-13a11.62,11.62,0,0,0-7.7,3l-.2.2-.2-.2a11.43,11.43,0,0,0-7.7-3,4.44,4.44,0,0,1-4.4-4.4,4.44,4.44,0,0,1,4.4-4.4,4.26,4.26,0,0,1,4,2.7A4.06,4.06,0,0,1-.1,62.9a4.06,4.06,0,0,1,3.8,2.5,4.26,4.26,0,0,1,4-2.7,4.44,4.44,0,0,1,4.4,4.4A4.27,4.27,0,0,1,7.9,71.5Z"/><path class="7b8f7288-d7b3-4f93-8e39-8201a733c79d" d="M3.8,65.5A4.06,4.06,0,0,0,0,63a4.06,4.06,0,0,0-3.8,2.5,4.3,4.3,0,0,0-4.1-2.7,4.44,4.44,0,0,0-4.4,4.4,4.44,4.44,0,0,0,4.4,4.4,11.62,11.62,0,0,1,7.7,3l.2.2.2-.2a11.43,11.43,0,0,1,7.7-3,4.4,4.4,0,1,0-4.1-6.1Zm4.1,5.3A12,12,0,0,0,0,73.7a12,12,0,0,0-7.9-2.9,3.69,3.69,0,0,1-3.7-3.7,3.76,3.76,0,0,1,3.7-3.7,3.76,3.76,0,0,1,3.7,3.7v.3A4.21,4.21,0,0,0-.1,71.2,4.14,4.14,0,0,0,4,67.4H4v-.3a3.76,3.76,0,0,1,3.7-3.7,3.76,3.76,0,0,1,3.7,3.7A3.41,3.41,0,0,1,7.9,70.8ZM0,70.6a3.5,3.5,0,1,1,0-7,3.54,3.54,0,0,1,3.5,3.5A3.48,3.48,0,0,1,0,70.6Z"/></g><rect class="ea459448-f879-4d40-bfac-0585f4633cbd" x="75.7" width="51.8" height="50"/><g class="cdb56712-e9d4-4544-a8d4-f6aa6938e098"><path class="7b8f7288-d7b3-4f93-8e39-8201a733c79d" d="M121.5,32.6a4.21,4.21,0,0,0-4.1-3.8,4.07,4.07,0,0,0-4.1,3.8h0v.3a3.69,3.69,0,0,1-3.7,3.7,3.7,3.7,0,0,1,0-7.4,12,12,0,1,0-7.9-21.1,12,12,0,1,0-7.9,21.1,3.69,3.69,0,0,1,3.7,3.7,3.7,3.7,0,1,1-7.4,0h0v-.3a4.15,4.15,0,0,0-4.2-3.8,4.23,4.23,0,0,0-4.2,3.8v.3h0A12.06,12.06,0,0,0,101.6,42a12.06,12.06,0,0,0,19.9-9.1v-.3Zm-4.2,3.8a3.5,3.5,0,1,1,3.5-3.5A3.48,3.48,0,0,1,117.3,36.4Zm-7.9,7.9a11.62,11.62,0,0,1-7.7-3l-.2-.2-.2.2a11.39,11.39,0,0,1-18.8-5.8A4.25,4.25,0,0,0,85.7,37a4.06,4.06,0,0,0,3.8-2.5,4.42,4.42,0,1,0,4.1-6.1,11.4,11.4,0,1,1,0-22.8,11.62,11.62,0,0,1,7.7,3l.2.2.2-.2a11.4,11.4,0,1,1,7.7,19.8,4.4,4.4,0,0,0,0,8.8,4.5,4.5,0,0,0,4.1-2.7,4.06,4.06,0,0,0,3.8,2.5,4.25,4.25,0,0,0,3.2-1.5A11.36,11.36,0,0,1,109.4,44.3ZM85.8,36.4a3.5,3.5,0,1,1,3.5-3.5A3.54,3.54,0,0,1,85.8,36.4Z"/><path class="7b8f7288-d7b3-4f93-8e39-8201a733c79d" d="M113.5,34.5a4.3,4.3,0,0,1-4.1,2.7,4.4,4.4,0,0,1,0-8.8,11.4,11.4,0,0,0,0-22.8,11.62,11.62,0,0,0-7.7,3l-.2.2-.2-.2a11.4,11.4,0,1,0-7.7,19.8,4.4,4.4,0,0,1,0,8.8,4.5,4.5,0,0,1-4.1-2.7A4.06,4.06,0,0,1,85.7,37a4.25,4.25,0,0,1-3.2-1.5,11.47,11.47,0,0,0,11.1,8.8,11.62,11.62,0,0,0,7.7-3l.2-.2.2.2a11.41,11.41,0,0,0,18.8-5.7,4.25,4.25,0,0,1-3.2,1.5A4.31,4.31,0,0,1,113.5,34.5Zm-4.1-13a11.62,11.62,0,0,0-7.7,3l-.2.2-.2-.2a11.43,11.43,0,0,0-7.7-3,4.4,4.4,0,1,1,0-8.8,4.5,4.5,0,0,1,4.1,2.7,4.14,4.14,0,0,1,7.6,0,4.3,4.3,0,0,1,4.1-2.7,4.44,4.44,0,0,1,4.4,4.4A4.37,4.37,0,0,1,109.4,21.5Z"/><path class="7b8f7288-d7b3-4f93-8e39-8201a733c79d" d="M105.4,15.5a4.14,4.14,0,0,0-7.6,0,4.42,4.42,0,1,0-4.1,6.1,11.62,11.62,0,0,1,7.7,3l.2.2.2-.2a11.43,11.43,0,0,1,7.7-3,4.4,4.4,0,0,0,0-8.8A4.3,4.3,0,0,0,105.4,15.5Zm4,5.3a12,12,0,0,0-7.9,2.9,12,12,0,0,0-7.9-2.9,3.69,3.69,0,0,1-3.7-3.7,3.7,3.7,0,1,1,7.4,0v.3a4.23,4.23,0,0,0,4.2,3.8,4.07,4.07,0,0,0,4.1-3.8h0v-.3a3.69,3.69,0,0,1,3.7-3.7,3.76,3.76,0,0,1,3.7,3.7A3.61,3.61,0,0,1,109.4,20.8Zm-7.8-.2a3.5,3.5,0,1,1,3.5-3.5A3.48,3.48,0,0,1,101.6,20.6Z"/></g><rect class="ea459448-f879-4d40-bfac-0585f4633cbd" x="24.9" y="25" width="51.8" height="50"/><g class="e975fc2b-89f3-4558-9723-837bd57b6117"><path class="7b8f7288-d7b3-4f93-8e39-8201a733c79d" d="M70.7,57.6a4.22,4.22,0,0,0-8.4,0h0v.3a3.69,3.69,0,0,1-3.7,3.7,3.7,3.7,0,1,1,0-7.4,12,12,0,1,0-7.9-21.1,12,12,0,1,0-7.9,21.1,3.69,3.69,0,0,1,3.7,3.7,3.7,3.7,0,0,1-7.4,0h0v-.3a4.15,4.15,0,0,0-4.2-3.8,4.23,4.23,0,0,0-4.2,3.8v.3h0A12.06,12.06,0,0,0,50.6,67a12.06,12.06,0,0,0,19.9-9.1l.2-.3Zm-4.2,3.8A3.5,3.5,0,1,1,70,57.9,3.48,3.48,0,0,1,66.5,61.4Zm-7.8,7.9a11.62,11.62,0,0,1-7.7-3l-.2-.2-.2.2a11.39,11.39,0,0,1-18.8-5.8A4.25,4.25,0,0,0,35,62a4.06,4.06,0,0,0,3.8-2.5,4.42,4.42,0,1,0,4.1-6.1,11.4,11.4,0,0,1,0-22.8,11.62,11.62,0,0,1,7.7,3l.2.2.2-.2a11.4,11.4,0,1,1,7.7,19.8,4.4,4.4,0,0,0,0,8.8,4.5,4.5,0,0,0,4.1-2.7A4.06,4.06,0,0,0,66.6,62a4.25,4.25,0,0,0,3.2-1.5A11.53,11.53,0,0,1,58.7,69.3ZM35,61.4a3.5,3.5,0,1,1,3.5-3.5A3.54,3.54,0,0,1,35,61.4Z"/><path class="7b8f7288-d7b3-4f93-8e39-8201a733c79d" d="M62.7,59.5a4.42,4.42,0,1,1-4.1-6.1,11.4,11.4,0,0,0,0-22.8,11.62,11.62,0,0,0-7.7,3l-.2.2-.2-.2a11.4,11.4,0,1,0-7.7,19.8,4.4,4.4,0,0,1,0,8.8,4.5,4.5,0,0,1-4.1-2.7A3.83,3.83,0,0,1,35,62a4.25,4.25,0,0,1-3.2-1.5,11.47,11.47,0,0,0,11.1,8.8,11.62,11.62,0,0,0,7.7-3l.2-.2.2.2a11.41,11.41,0,0,0,18.8-5.7,4.25,4.25,0,0,1-3.2,1.5A4.34,4.34,0,0,1,62.7,59.5Zm-4-13a11.62,11.62,0,0,0-7.7,3l-.2.2-.2-.2a11.43,11.43,0,0,0-7.7-3,4.4,4.4,0,1,1,0-8.8A4.5,4.5,0,0,1,47,40.4,4.13,4.13,0,0,1,50.8,38a4.06,4.06,0,0,1,3.8,2.5,4.4,4.4,0,1,1,4.1,6Z"/><path class="7b8f7288-d7b3-4f93-8e39-8201a733c79d" d="M54.6,40.5a4.14,4.14,0,0,0-7.6,0,4.42,4.42,0,1,0-4.1,6.1,11.62,11.62,0,0,1,7.7,3l.2.2.2-.2a11.43,11.43,0,0,1,7.7-3,4.4,4.4,0,1,0-4.1-6.1Zm4.1,5.3a12,12,0,0,0-7.9,2.9,12,12,0,0,0-7.9-2.9,3.69,3.69,0,0,1-3.7-3.7,3.7,3.7,0,1,1,7.4,0v.3a4.22,4.22,0,0,0,8.4,0h0v-.3a3.69,3.69,0,0,1,3.7-3.7,3.76,3.76,0,0,1,3.7,3.7A3.69,3.69,0,0,1,58.7,45.8Zm-7.9-.2a3.5,3.5,0,1,1,3.5-3.5A3.48,3.48,0,0,1,50.8,45.6Z"/></g><rect class="ea459448-f879-4d40-bfac-0585f4633cbd" x="-25.9" width="51.8" height="50"/><g class="1bf37134-7d66-477c-81f8-aec791c92ffa"><path class="7b8f7288-d7b3-4f93-8e39-8201a733c79d" d="M19.9,32.6a4.22,4.22,0,0,0-8.4,0h0v.3a3.69,3.69,0,0,1-3.7,3.7,3.7,3.7,0,1,1,0-7.4A12,12,0,1,0-.1,8.1,12,12,0,0,0-8,5.2a12,12,0,0,0-12,12,12,12,0,0,0,12,12,3.76,3.76,0,0,1,3.7,3.7A3.76,3.76,0,0,1-8,36.6a3.76,3.76,0,0,1-3.7-3.7h0v-.3a4.15,4.15,0,0,0-4.2-3.8,4.23,4.23,0,0,0-4.2,3.8v.3h0a12,12,0,0,0,12,12A12,12,0,0,0-.2,42a12.06,12.06,0,0,0,19.9-9.1l.2-.3Zm-4.1,3.8a3.5,3.5,0,1,1,3.5-3.5A3.54,3.54,0,0,1,15.8,36.4ZM7.9,44.3a11.62,11.62,0,0,1-7.7-3L0,41.1l-.2.2a11.43,11.43,0,0,1-7.7,3A11.36,11.36,0,0,1-19,35.5,4.25,4.25,0,0,0-15.8,37,4.06,4.06,0,0,0-12,34.5a4.3,4.3,0,0,0,4.1,2.7,4.44,4.44,0,0,0,4.4-4.4,4.44,4.44,0,0,0-4.4-4.4A11.39,11.39,0,0,1-19.3,17,11.31,11.31,0,0,1-7.9,5.7a11.62,11.62,0,0,1,7.7,3l.2.2.2-.2a11.39,11.39,0,0,1,19.1,8.4A11.46,11.46,0,0,1,7.9,28.5a4.4,4.4,0,0,0,0,8.8,4.26,4.26,0,0,0,4-2.7,4.06,4.06,0,0,0,3.8,2.5,4.25,4.25,0,0,0,3.2-1.5A11.27,11.27,0,0,1,7.9,44.3Zm-23.7-7.9a3.54,3.54,0,0,1-3.5-3.5,3.54,3.54,0,0,1,3.5-3.5,3.54,3.54,0,0,1,3.5,3.5A3.48,3.48,0,0,1-15.8,36.4Z"/><path class="7b8f7288-d7b3-4f93-8e39-8201a733c79d" d="M11.9,34.5a4.36,4.36,0,0,1-4,2.7,4.4,4.4,0,0,1,0-8.8,11.35,11.35,0,1,0,0-22.7,11.62,11.62,0,0,0-7.7,3L0,8.9l-.2-.2a11.43,11.43,0,0,0-7.7-3A11.39,11.39,0,0,0-19.3,17.1,11.39,11.39,0,0,0-7.9,28.5a4.44,4.44,0,0,1,4.4,4.4,4.44,4.44,0,0,1-4.4,4.4A4.5,4.5,0,0,1-12,34.6,4,4,0,0,1-15.8,37,4.25,4.25,0,0,1-19,35.5,11.47,11.47,0,0,0-7.9,44.3a11.62,11.62,0,0,0,7.7-3l.2-.2.2.2A11.41,11.41,0,0,0,19,35.6a4.25,4.25,0,0,1-3.2,1.5A4.46,4.46,0,0,1,11.9,34.5Zm-4-13a11.62,11.62,0,0,0-7.7,3l-.2.2-.2-.2a11.43,11.43,0,0,0-7.7-3,4.44,4.44,0,0,1-4.4-4.4,4.44,4.44,0,0,1,4.4-4.4,4.26,4.26,0,0,1,4,2.7A4.06,4.06,0,0,1-.1,12.9a4.06,4.06,0,0,1,3.8,2.5,4.26,4.26,0,0,1,4-2.7,4.44,4.44,0,0,1,4.4,4.4A4.27,4.27,0,0,1,7.9,21.5Z"/><path class="7b8f7288-d7b3-4f93-8e39-8201a733c79d" d="M3.8,15.5A4.06,4.06,0,0,0,0,13a4.06,4.06,0,0,0-3.8,2.5,4.3,4.3,0,0,0-4.1-2.7,4.44,4.44,0,0,0-4.4,4.4,4.44,4.44,0,0,0,4.4,4.4,11.62,11.62,0,0,1,7.7,3l.2.2.2-.2a11.43,11.43,0,0,1,7.7-3,4.4,4.4,0,1,0-4.1-6.1Zm4.1,5.3A12,12,0,0,0,0,23.7a12,12,0,0,0-7.9-2.9,3.69,3.69,0,0,1-3.7-3.7,3.76,3.76,0,0,1,3.7-3.7,3.76,3.76,0,0,1,3.7,3.7v.3A4.21,4.21,0,0,0-.1,21.2,4.14,4.14,0,0,0,4,17.4H4v-.3a3.69,3.69,0,0,1,3.7-3.7,3.76,3.76,0,0,1,3.7,3.7A3.41,3.41,0,0,1,7.9,20.8ZM0,20.6a3.5,3.5,0,1,1,0-7,3.54,3.54,0,0,1,3.5,3.5A3.48,3.48,0,0,1,0,20.6Z"/></g><rect class="ea459448-f879-4d40-bfac-0585f4633cbd" x="24.9" y="-25" width="51.8" height="50"/><g class="80f68bdc-6cfd-4a9c-a3cc-f16325e05813"><path class="7b8f7288-d7b3-4f93-8e39-8201a733c79d" d="M70.7,7.6a4.22,4.22,0,0,0-8.4,0h0v.3a3.69,3.69,0,0,1-3.7,3.7,3.76,3.76,0,0,1-3.7-3.7,3.76,3.76,0,0,1,3.7-3.7,12,12,0,0,0,12-12,12,12,0,0,0-12-12,12,12,0,0,0-7.9,2.9,12,12,0,0,0-7.9-2.9,12,12,0,0,0-12,12,12,12,0,0,0,12,12,3.69,3.69,0,0,1,3.7,3.7,3.7,3.7,0,1,1-7.4,0h0V7.6a4.15,4.15,0,0,0-4.2-3.8,4.23,4.23,0,0,0-4.2,3.8v.3h0A12.06,12.06,0,0,0,50.6,17,12.06,12.06,0,0,0,70.5,7.9l.2-.3Zm-4.2,3.8A3.54,3.54,0,0,1,63,7.9a3.5,3.5,0,0,1,7,0A3.48,3.48,0,0,1,66.5,11.4Zm-7.8,7.9a11.62,11.62,0,0,1-7.7-3l-.2-.2-.2.2a11.39,11.39,0,0,1-18.8-5.8A4.25,4.25,0,0,0,35,12a4.06,4.06,0,0,0,3.8-2.5,4.42,4.42,0,1,0,4.1-6.1A11.39,11.39,0,0,1,31.5-8,11.39,11.39,0,0,1,42.9-19.4a11.62,11.62,0,0,1,7.7,3l.2.2.2-.2a11.43,11.43,0,0,1,7.7-3A11.39,11.39,0,0,1,70.1-8,11.39,11.39,0,0,1,58.7,3.4a4.4,4.4,0,1,0,0,8.8,4.5,4.5,0,0,0,4.1-2.7A4.06,4.06,0,0,0,66.6,12a4.25,4.25,0,0,0,3.2-1.5A11.53,11.53,0,0,1,58.7,19.3ZM35,11.4a3.54,3.54,0,0,1-3.5-3.5,3.5,3.5,0,1,1,7,0A3.54,3.54,0,0,1,35,11.4Z"/><path class="7b8f7288-d7b3-4f93-8e39-8201a733c79d" d="M62.7,9.5a4.42,4.42,0,1,1-4.1-6.1A11.39,11.39,0,0,0,70-8,11.29,11.29,0,0,0,58.7-19.3a11.62,11.62,0,0,0-7.7,3l-.2.2-.2-.2a11.43,11.43,0,0,0-7.7-3A11.39,11.39,0,0,0,31.5-7.9,11.39,11.39,0,0,0,42.9,3.5a4.4,4.4,0,1,1,0,8.8,4.5,4.5,0,0,1-4.1-2.7A4.13,4.13,0,0,1,35,12a4.25,4.25,0,0,1-3.2-1.5,11.47,11.47,0,0,0,11.1,8.8,11.62,11.62,0,0,0,7.7-3l.2-.2.2.2a11.41,11.41,0,0,0,18.8-5.7,4.25,4.25,0,0,1-3.2,1.5A4.34,4.34,0,0,1,62.7,9.5Zm-4-13A11.62,11.62,0,0,0,51-.5l-.2.2-.2-.2a11.43,11.43,0,0,0-7.7-3,4.44,4.44,0,0,1-4.4-4.4,4.44,4.44,0,0,1,4.4-4.4A4.5,4.5,0,0,1,47-9.6,4.13,4.13,0,0,1,50.8-12a4.06,4.06,0,0,1,3.8,2.5,4.4,4.4,0,0,1,4.1-2.7,4.44,4.44,0,0,1,4.4,4.4A4.35,4.35,0,0,1,58.7-3.5Z"/></g></pattern></defs><title>Logo Card Back - FINAL</title><g id="cf839d78-1b0c-4cc5-bc90-e28fb5ba4ef2" data-name="Layer 2"><g id="6aa6f766-ab1f-4787-bc72-a03678f72978" data-name="Layer 1"><path class="ea459448-f879-4d40-bfac-0585f4633cbd" d="M467.7,750H26.09A26,26,0,0,1,0,723.91V26.09A26,26,0,0,1,26.09,0H467.55a26,26,0,0,1,26.09,26.09V723.76A26,26,0,0,1,467.7,750Z"/><path class="c55e00e6-cf27-479e-a8b6-897d4488199f" d="M468.48,733.7H25.31A11.4,11.4,0,0,1,14,722.36V27.64A11.4,11.4,0,0,1,25.31,16.3H468.48a11.4,11.4,0,0,1,11.34,11.34V722.36A11.4,11.4,0,0,1,468.48,733.7Z"/></g></g></svg>