<svg xmlns="http://www.w3.org/2000/svg" xmlns:xlink="http://www.w3.org/1999/xlink" viewBox="0 0 98 137"><defs><style>.\33 43732fa-af30-4afe-8632-e4c719994652,.a60de90c-be99-45d6-99df-6086c145cb4d{fill:none;}.ed1bc586-a0e0-4cea-a7db-51ddb1af2da4{clip-path:url(#53526eb8-b30c-45fa-aaba-6a6250692265);}.\36 6a98ffa-0331-419e-9e51-f343f9bda2ba{fill-opacity:0.5;}.e3752dda-5a87-4b88-b8db-17f5294d3a4f{fill:#fff;}.e5bc2df5-1361-432b-bff2-d50303379784{fill:#c7891f;}.\33 abf91c5-4ac1-473f-8334-f3f0b25b9c2b{fill:url(#b0aeb531-e37c-4756-b318-dff31836b818);}.\36 52b75fa-1653-4cee-bdf8-31589cc6cbd2{fill:#d80002;}.c1dc6541-b89e-4edb-a0aa-e10cae6dd46b{fill:#830007;}.\33 43732fa-af30-4afe-8632-e4c719994652{stroke-miterlimit:10;stroke-width:2px;stroke:url(#ec3b83c7-e2ef-469b-9a92-9b1a675d5ff9);}</style><clipPath id="53526eb8-b30c-45fa-aaba-6a6250692265"><path id="8326083d-4a1c-45f3-931d-23ea849f83b3" data-name="rect6472-823" class="a60de90c-be99-45d6-99df-6086c145cb4d" d="M9.31,3h78a7.56,7.56,0,0,1,7.81,7.28V126.84a7.56,7.56,0,0,1-7.81,7.28h-78a7.56,7.56,0,0,1-7.81-7.28V10.28A7.56,7.56,0,0,1,9.31,3Z"/></clipPath><linearGradient id="b0aeb531-e37c-4756-b318-dff31836b818" x1="2.97" y1="-4392.99" x2="79.35" y2="-4439.81" gradientTransform="matrix(1, 0, 0, -1, 0, -4353)" gradientUnits="userSpaceOnUse"><stop offset="0" stop-color="#ebf0d0"/><stop offset="1" stop-color="#ffffeb"/></linearGradient><linearGradient id="ec3b83c7-e2ef-469b-9a92-9b1a675d5ff9" x1="-627.04" y1="-1443.34" x2="-493.04" y2="-1443.34" gradientTransform="translate(608.54 1511.84)" gradientUnits="userSpaceOnUse"><stop offset="0" stop-color="#0bcdd6"/><stop offset="0.14" stop-color="#fff"/><stop offset="0.29" stop-color="#34d5dd"/><stop offset="0.44" stop-color="#fff"/><stop offset="0.58" stop-color="#0bcdd6"/><stop offset="0.72" stop-color="#fff"/><stop offset="0.87" stop-color="#0bcdd6"/><stop offset="1" stop-color="#fff"/></linearGradient></defs><title>Red Card Back - Button - FINAL</title><g id="c457e603-4ce9-447b-8e1c-b7f56d1917ac" data-name="Layer 2"><g id="a5f79615-ec34-4afb-8939-65298f13fc8b" data-name="Layer 1"><g class="ed1bc586-a0e0-4cea-a7db-51ddb1af2da4"><g id="5350479e-fdb5-425c-ba1b-2c2815870335" data-name="g5630"><path id="7f09ac33-3543-40f9-87f2-6338812764e2" data-name="rect2070" class="66a98ffa-0331-419e-9e51-f343f9bda2ba" d="M14.1,2.9H86.72A11.42,11.42,0,0,1,98,14.5V125.4A11.42,11.42,0,0,1,86.72,137H14.1A11.42,11.42,0,0,1,2.82,125.4V14.5A11.42,11.42,0,0,1,14.1,2.9Z"/><path id="e0556990-e11d-4409-a5d6-78501105b6bd" data-name="rect1300" class="e3752dda-5a87-4b88-b8db-17f5294d3a4f" d="M11.28,0H83.9A11.42,11.42,0,0,1,95.18,11.6V122.5A11.42,11.42,0,0,1,83.9,134.1H11.28A11.42,11.42,0,0,1,0,122.5V11.6A11.42,11.42,0,0,1,11.28,0Z"/><path id="4795bb09-bb51-4b19-afb3-9d103366fb77" data-name="path5624" class="e5bc2df5-1361-432b-bff2-d50303379784" d="M12.69,1.45H85.31A11.42,11.42,0,0,1,96.59,13V124a11.42,11.42,0,0,1-11.28,11.6H12.69A11.42,11.42,0,0,1,1.41,124V13A11.42,11.42,0,0,1,12.69,1.45Z"/><path id="520caa5f-c18b-4d6f-9baa-516f70d0e87a" data-name="rect1306" class="3abf91c5-4ac1-473f-8334-f3f0b25b9c2b" d="M12,.72H84.6a11.42,11.42,0,0,1,11.28,11.6v110.9a11.42,11.42,0,0,1-11.28,11.6H12A11.42,11.42,0,0,1,.71,123.23V12.32A11.42,11.42,0,0,1,12,.72Z"/></g><path id="d45f8823-b587-4135-9b49-56e9435b1a40" data-name="path1385" class="652b75fa-1653-4cee-bdf8-31589cc6cbd2" d="M14.92,6.52H81.49A10.47,10.47,0,0,1,91.83,17.16V118.82a10.46,10.46,0,0,1-10.34,10.63H14.92A10.46,10.46,0,0,1,4.58,118.82V17.16A10.47,10.47,0,0,1,14.92,6.52Z"/><path id="ff3cd733-32f7-40ab-bd53-984b65334e75" data-name="path2154" class="c1dc6541-b89e-4edb-a0aa-e10cae6dd46b" d="M14.92,6.07A10.91,10.91,0,0,0,4.14,17.15V118.81a10.93,10.93,0,0,0,10.77,11.1H81.5a10.93,10.93,0,0,0,10.78-11.1V17.15A10.92,10.92,0,0,0,81.5,6.07H14.92Zm0,.91H81.5a10,10,0,0,1,9.89,10.17V118.81A10,10,0,0,1,81.5,129H14.92A10,10,0,0,1,5,118.81V17.15A10,10,0,0,1,14.92,7Z"/><path id="cbd65d3d-6ea8-460b-98bf-9d18eb2fdc30" data-name="path4078" class="e3752dda-5a87-4b88-b8db-17f5294d3a4f" d="M26.73,13.77c-2.38,0-4.47,1.51-5.9,3.74A15.85,15.85,0,0,0,18.53,26c0,3,1.54,6.48,3,9.81a33.52,33.52,0,0,1,2.38,7,4.26,4.26,0,0,1-.46-.34,42.74,42.74,0,0,1-2.93-3.26,44,44,0,0,0-3.33-3.62c-1.12-1-2.2-1.9-3.5-1.9-2.38,0-4.47,1.51-5.9,3.74a15.84,15.84,0,0,0-2.29,8.52,15.84,15.84,0,0,0,2.29,8.52c1.44,2.23,3.53,3.74,5.9,3.74,1.33,0,2.43-.89,3.53-2a44.09,44.09,0,0,0,3.24-3.78A39,39,0,0,1,23.35,49a5.12,5.12,0,0,1,1-.75c0,1.26.13,3.82.15,7,0,1.8,0,3.59,0,5,0,.69-.06,1.26-.11,1.68a4.34,4.34,0,0,1-.09.48,3.48,3.48,0,0,1-2.84,1.59l-1-.07,0,1,0,2.29,0,.88h.86L32,68h.86l0-.88,0-2.29,0-1-1,.07a3.36,3.36,0,0,1-2.86-1.59c.12.15.07.1,0,0a4.56,4.56,0,0,1-.09-.48c-.06-.43-.13-1.05-.18-1.77-.09-1.42-.12-3.25-.15-5.07s0-3.64,0-5c0-.84,0-1.06,0-1.5,0,0,0,0,0,0a5.42,5.42,0,0,1,1.12.86,40.31,40.31,0,0,1,3,3.4,45.33,45.33,0,0,0,3.3,3.76c1.11,1.07,2.2,1.95,3.53,1.95,2.38,0,4.47-1.51,5.9-3.74a15.84,15.84,0,0,0,2.29-8.52,15.84,15.84,0,0,0-2.29-8.52c-1.44-2.23-3.53-3.74-5.9-3.74-1.29,0-2.37.82-3.48,1.83a47.9,47.9,0,0,0-3.33,3.53,33.81,33.81,0,0,1-3,3.15,4.92,4.92,0,0,1-.75.52,36.42,36.42,0,0,1,2.69-7.11C33.31,32.5,34.92,29,34.92,26a15.84,15.84,0,0,0-2.29-8.52C31.19,15.28,29.1,13.77,26.73,13.77Zm42.13,0-.9,1.86C61.7,28.52,58.53,34.91,49.26,41.88l-.95.72.93.72C58.09,50.29,63,55.41,68.12,67l.82,1.84L69.73,67c4.63-11,9.06-17.28,18.86-24.08L89.83,42l-1.33-.7c-9.74-5.1-14.25-12.93-18.95-25.57ZM26.73,15.58c1.66,0,3.22,1,4.43,2.92a14.13,14.13,0,0,1,2,7.52c0,2.31-1.45,5.7-3,9S27,41.45,27,44.06v.63l.55.23a2.32,2.32,0,0,0,1.81-.07,6.26,6.26,0,0,0,1.59-1,34.36,34.36,0,0,0,3.22-3.33c1.09-1.23,2.2-2.49,3.19-3.4a4.79,4.79,0,0,1,2.31-1.38c1.66,0,3.22,1,4.43,2.92a14.12,14.12,0,0,1,2,7.52,14.12,14.12,0,0,1-2,7.52c-1.21,1.88-2.77,2.92-4.43,2.92a4.64,4.64,0,0,1-2.31-1.45,44.7,44.7,0,0,1-3.17-3.6A40.81,40.81,0,0,0,31,48a6.52,6.52,0,0,0-1.52-1.13,2.43,2.43,0,0,0-1.41-.23v0l-.22,0-1-.09v1s0,1.05,0,2.45,0,3.21,0,5.05.08,3.69.18,5.16c0,.74.1,1.39.18,1.9a7,7,0,0,0,.11.7,1.54,1.54,0,0,0,.31.66,5,5,0,0,0,3.39,2.11v.63l-8.9.07v-.63a5.07,5.07,0,0,0,3.42-2.13,1.45,1.45,0,0,0,.29-.66,5.7,5.7,0,0,0,.13-.68c.06-.5.1-1.12.13-1.84.06-1.43.06-3.24,0-5.05,0-3.63-.15-7.32-.18-8l0-.61-.55-.2a2.22,2.22,0,0,0-1.81.16,6.44,6.44,0,0,0-1.52,1.15,39.26,39.26,0,0,0-3.11,3.6A43.52,43.52,0,0,1,16,54.91a4.58,4.58,0,0,1-2.29,1.47c-1.66,0-3.22-1-4.43-2.92a14.12,14.12,0,0,1-2-7.52,14.12,14.12,0,0,1,2-7.52c1.21-1.88,2.77-2.92,4.43-2.92A4.83,4.83,0,0,1,16,36.92a43.48,43.48,0,0,1,3.17,3.49,41.87,41.87,0,0,0,3.08,3.4,6.14,6.14,0,0,0,1.45,1.09,1.9,1.9,0,0,0,1.76,0l.42-.25,0-.5c.16-2.6-1.36-5.74-2.8-9.06S20.29,28.35,20.29,26a14.13,14.13,0,0,1,2-7.52C23.51,16.63,25.07,15.58,26.73,15.58Zm41.95,2.63c4.32,11.19,9,18.94,17.85,24C77.83,48.51,73.15,54.9,68.87,64.6c-4.81-10.18-9.79-15.67-17.71-22C59.5,36.06,63.19,29.44,68.67,18.21ZM17,69.95a10.59,10.59,0,0,0-4.38,1.11l-.09,0-.09,0c-4.18,3.34-6,7.37-6.1,11.64s1.48,8.75,3.79,13.32c4.62,9.15,12.33,18.77,16.83,27.52l.15.32.33.12.26.09.71.25.35-.67c5-9.63,12.3-19.83,16.57-29.07,2.14-4.61,3.53-9,3.42-13a13,13,0,0,0-5.68-10.49l-.07,0-.07,0c-3.08-1.44-5.78-1.37-7.93-.32a12,12,0,0,0-4.89,5,26.91,26.91,0,0,0-2.36,5.71,27.77,27.77,0,0,0-1.5-4.12,16.24,16.24,0,0,0-3.48-5.05A8.31,8.31,0,0,0,17,69.95Zm52,.29-.84,1.36C64.56,77.53,57,85.53,52.13,92.87c-2.44,3.68-4.24,7.21-4.47,10.45a7.28,7.28,0,0,0,1.06,4.53,9.24,9.24,0,0,0,4.19,3.33h0l0,0c4.6,1.54,8.06.73,10.49-1.07a12.7,12.7,0,0,0,3.15-3.6c0,1.42.1,3.08.11,4.82,0,1.93,0,3.87-.09,5.35,0,.74-.09,1.36-.15,1.79a3.35,3.35,0,0,1-.09.43,6.07,6.07,0,0,1-3.9,1.49l-.95,0,0,1,0,2.08,0,.88h.86l13.55-.07h.85l0-.88,0-2,0-1-.94,0a6.12,6.12,0,0,1-3.88-1.51,3.33,3.33,0,0,1-.11-.43c-.07-.43-.15-1.06-.2-1.79-.11-1.46-.16-3.37-.18-5.28s0-3.81,0-5.28v-.21a16,16,0,0,0,3.3,4,8,8,0,0,0,8.55,1.58,11.71,11.71,0,0,0,5-3.51A7.4,7.4,0,0,0,90,103.27c-.07-3.38-2-7-4.52-10.65-5.1-7.37-13-15.29-15.8-21L69,70.24ZM17,71.76a6.48,6.48,0,0,1,4.58,1.9,14.68,14.68,0,0,1,3.08,4.49,31.26,31.26,0,0,1,2.25,7.14h1.72a29.93,29.93,0,0,1,3-8.61,10.23,10.23,0,0,1,4.12-4.28c1.67-.82,3.68-1,6.35.25a10.88,10.88,0,0,1,4.89,9c.1,3.56-1.18,7.72-3.26,12.21-4,8.62-10.81,18.35-15.84,27.8C23.21,113,16,103.79,11.7,95.28,9.46,90.84,8,86.62,8.11,82.84s1.59-7.13,5.4-10.19A8.68,8.68,0,0,1,17,71.76ZM68.9,73.71c3.41,6.05,10.57,13.25,15.2,20,2.47,3.57,4.13,7,4.19,9.63a5.44,5.44,0,0,1-1.15,3.58,10,10,0,0,1-4.27,3c-2.67,1.15-4.86.29-6.76-1.31a16.42,16.42,0,0,1-4-5.51l-.24-.54H69.91l0,.93c0,.07,0,1.19,0,2.67s0,3.4,0,5.33.08,3.86.2,5.39c.06.77.11,1.44.2,2a4.71,4.71,0,0,0,.18.72,1.29,1.29,0,0,0,.39.7,6.72,6.72,0,0,0,4.3,1.91v.34l-11.83.07v-.36a6.71,6.71,0,0,0,4.32-1.9,1.35,1.35,0,0,0,.4-.72,5.31,5.31,0,0,0,.15-.75c.08-.54.14-1.2.18-2,.08-1.54.1-3.49.09-5.44s-.07-3.89-.11-5.39c0-.75,0-1.38,0-1.86s0-.83,0-.83l0-.93H66.82l-.24.52a14.39,14.39,0,0,1-4.14,5.8c-2,1.47-4.69,2.2-8.83.83a7.41,7.41,0,0,1-3.41-2.65,5.38,5.38,0,0,1-.77-3.42c.19-2.62,1.8-6,4.16-9.54C58,87.17,64.91,79.79,68.9,73.71Z"/></g><rect class="343732fa-af30-4afe-8632-e4c719994652" x="-17.5" y="21.5" width="132" height="94" rx="7.89" ry="7.89" transform="translate(-20 117) rotate(-90)"/></g></g></svg>